<svg xmlns="http://www.w3.org/2000/svg" version="1.1" xmlns:xlink="http://www.w3.org/1999/xlink" xmlns:svgjs="http://svgjs.com/svgjs" width="512" height="512" x="0" y="0" viewBox="0 0 127.723 127.723" style="enable-background:new 0 0 512 512" xml:space="preserve" class=""><g><path d="M9.58 47.725 50.494 6.817c7.097-7.096 19.661-7.084 26.748.004l40.902 40.906c7.382 7.389 7.382 19.363-.002 26.748-7.391 7.377-19.358 7.383-26.745-.004L82.78 65.85v41.461c0 10.445-8.469 18.912-18.913 18.912-10.446 0-18.909-8.467-18.909-18.912V65.842l-8.634 8.633a18.876 18.876 0 0 1-13.373 5.535c-4.835 0-9.68-1.848-13.372-5.539-7.383-7.388-7.383-19.357.001-26.746z" style="" fill="#ffffff" data-original="#ffffff" class=""></path><path d="M63.623 1.512c4.997-.059 10.015 1.705 13.618 5.309l40.902 40.906c7.382 7.389 7.382 19.363-.002 26.748-7.391 7.377-19.358 7.383-26.745-.004l-8.617-8.621v41.461c0 10.445-8.469 18.912-18.913 18.912-.082 0-.161-.012-.243-.012V1.512z" style="" fill="#e9f1f4" data-original="#e9f1f4" class=""></path><path d="M36.323 74.475a18.863 18.863 0 0 1-22.792 3l36.963-36.959c7.097-7.092 19.661-7.084 26.748.006l36.949 36.953c-7.23 4.162-16.617 3.176-22.794-3.004L82.78 65.85v41.461c0 10.445-8.469 18.912-18.913 18.912-10.446 0-18.909-8.467-18.909-18.912V65.842l-8.635 8.633z" style="" fill="#d8e5ea" data-original="#d8e5ea"></path><path d="M63.861 35.202v91.021c-10.444-.002-18.904-8.469-18.904-18.912V65.842l-8.634 8.633a18.863 18.863 0 0 1-22.792 3l36.963-36.959c3.545-3.543 8.457-5.314 13.367-5.314z" style="" fill="#e9f1f4" data-original="#e9f1f4" class=""></path><path d="M63.866 127.723c-11.253 0-20.409-9.157-20.409-20.412V69.463l-6.074 6.072c-3.862 3.854-8.987 5.975-14.434 5.975a20.278 20.278 0 0 1-14.433-5.979c-7.952-7.96-7.951-20.909.002-28.867L49.433 5.756C53.092 2.098 58.351 0 63.863 0h.009c5.513.002 10.772 2.102 14.43 5.76l40.902 40.906c7.955 7.962 7.954 20.913-.002 28.869-7.965 7.951-20.914 7.947-28.866-.004l-6.057-6.06v37.839c0 11.256-9.157 20.413-20.413 20.413zM44.957 64.342a1.499 1.499 0 0 1 1.5 1.5v41.469c0 9.601 7.81 17.412 17.409 17.412 9.602 0 17.413-7.812 17.413-17.412V65.85a1.499 1.499 0 0 1 2.561-1.061l8.617 8.621c6.783 6.782 17.83 6.785 24.625.003 6.786-6.786 6.787-17.834.001-24.626L76.181 7.881c-3.1-3.1-7.587-4.879-12.311-4.881h-.007c-4.723 0-9.208 1.777-12.309 4.877L10.641 48.786c-6.785 6.789-6.786 17.836-.003 24.625a17.3 17.3 0 0 0 12.311 5.1c4.646 0 9.02-1.811 12.314-5.097l8.633-8.632a1.5 1.5 0 0 1 1.061-.44z" style="" fill="#33363a" data-original="#33363a" class=""></path><path d="M82.886 67.35c-.384 0-.768-.146-1.061-.439l-9.095-9.089a1.5 1.5 0 1 1 2.122-2.122l9.095 9.09a1.5 1.5 0 0 1-1.061 2.56zM44.835 67.35a1.501 1.501 0 0 1-1.061-2.56l9.093-9.09a1.502 1.502 0 0 1 2.122 0 1.502 1.502 0 0 1 0 2.122l-9.093 9.089a1.495 1.495 0 0 1-1.061.439z" style="" fill="#33363a" data-original="#33363a" class=""></path><path d="M81.285 51.059c0 9.625-7.802 17.426-17.425 17.426-9.622 0-17.424-7.801-17.424-17.426 0-9.621 7.801-17.422 17.424-17.422s17.425 7.801 17.425 17.422z" style="" fill="#ff8f8f" data-original="#ff8f8f"></path><path d="M81.285 51.059c0 7.373-7.802 13.348-17.425 13.348-9.622 0-17.424-5.975-17.424-13.348 0-7.367 7.801-13.346 17.424-13.346s17.425 5.979 17.425 13.346z" style="" fill="#ff1a1a" data-original="#ff1a1a"></path><path d="M46.436 51.059c0 9.625 7.801 17.426 17.424 17.426s17.425-7.801 17.425-17.426H46.436z" style="" fill="#ffffff" data-original="#ffffff" class=""></path><path d="M63.86 64.407c9.623 0 17.425-5.975 17.425-13.348H46.436c0 7.373 7.802 13.348 17.424 13.348z" style="" fill="#d8e5ea" data-original="#d8e5ea"></path><path d="M63.86 32.137c-10.435 0-18.924 8.488-18.924 18.922 0 10.436 8.489 18.926 18.924 18.926 10.435 0 18.925-8.49 18.925-18.926 0-10.434-8.49-18.922-18.925-18.922zm0 3c8.274 0 15.09 6.344 15.849 14.422H48.012c.76-8.078 7.574-14.422 15.848-14.422zm0 31.848c-8.274 0-15.089-6.346-15.848-14.426h31.697c-.759 8.08-7.574 14.426-15.849 14.426z" style="" fill="#33363a" data-original="#33363a" class=""></path><circle cx="63.86" cy="53.056" r="5.761" style="" fill="#a7bbc1" data-original="#a7bbc1"></circle><circle cx="63.86" cy="51.098" r="5.761" style="" fill="#ffffff" data-original="#ffffff" class=""></circle><path d="M59.787 55.172a5.762 5.762 0 0 1 8.147-8.148" style="" fill="#d8e5ea" data-original="#d8e5ea"></path><path d="M63.861 58.36a7.218 7.218 0 0 1-5.135-2.126 7.214 7.214 0 0 1-2.126-5.136c0-1.94.755-3.764 2.126-5.135a7.218 7.218 0 0 1 5.135-2.126c1.939 0 3.762.755 5.133 2.126a7.21 7.21 0 0 1 2.128 5.135c0 1.94-.756 3.764-2.127 5.135a7.213 7.213 0 0 1-5.134 2.127zm0-11.524a4.234 4.234 0 0 0-3.014 1.249 4.23 4.23 0 0 0-1.248 3.013c0 1.139.443 2.209 1.248 3.014.805.805 1.875 1.248 3.014 1.248s2.208-.443 3.012-1.248c.806-.805 1.249-1.875 1.249-3.014s-.443-2.208-1.248-3.013h-.001a4.23 4.23 0 0 0-3.012-1.249zM68.617 88.374c-.384 0-.768-.146-1.061-.439l-3.695-3.696-3.695 3.696a1.5 1.5 0 0 1-2.122-2.121l4.756-4.758c.563-.563 1.559-.563 2.122 0l4.756 4.758a1.501 1.501 0 0 1-1.061 2.56z" style="" fill="#33363a" data-original="#33363a" class=""></path><path d="M63.86 94.352a1.5 1.5 0 0 1-1.5-1.5V82.116a1.5 1.5 0 1 1 3 0v10.736a1.5 1.5 0 0 1-1.5 1.5zM63.861 98.862a1.499 1.499 0 0 1-1.5-1.5c0-.4.16-.78.44-1.061.56-.56 1.56-.56 2.12 0a1.5 1.5 0 0 1-1.06 2.561zM63.861 103.362a1.499 1.499 0 0 1-1.5-1.5c0-.4.16-.78.44-1.061.56-.56 1.56-.56 2.12 0a1.5 1.5 0 0 1-1.06 2.561zM63.861 107.862c-.39 0-.78-.16-1.06-.44a1.497 1.497 0 0 1 0-2.121c.56-.56 1.57-.56 2.12 0a1.5 1.5 0 0 1-1.06 2.561zM31.511 105.676l-4.756-4.758-.001-.001a1.497 1.497 0 0 0-2.12 0l-.001.001-4.756 4.758a1.501 1.501 0 0 0 2.122 2.121l2.195-2.196v7.114a1.5 1.5 0 1 0 3 0v-7.114l2.195 2.196c.293.293.677.439 1.061.439s.768-.146 1.061-.439a1.5 1.5 0 0 0 0-2.121zM24.631 116.162c-.28.28-.44.67-.44 1.06 0 .391.16.78.44 1.061.28.28.67.439 1.06.439.4 0 .78-.159 1.07-.439.27-.28.43-.67.43-1.061 0-.39-.16-.779-.44-1.06-.561-.56-1.561-.56-2.12 0zM24.631 120.662c-.28.28-.44.67-.44 1.06 0 .391.16.78.44 1.061a1.498 1.498 0 0 0 2.56-1.061c0-.39-.16-.779-.44-1.06-.561-.56-1.561-.56-2.12 0zM24.631 125.162c-.28.28-.44.67-.44 1.06 0 .391.16.78.44 1.061.28.28.67.439 1.06.439s.78-.159 1.07-.439c.27-.28.43-.67.43-1.061 0-.39-.16-.779-.44-1.06-.561-.56-1.561-.56-2.12 0zM107.845 105.676l-4.756-4.758-.001-.001a1.497 1.497 0 0 0-2.12 0l-.001.001-4.756 4.758a1.501 1.501 0 0 0 2.122 2.121l2.195-2.196v7.114a1.5 1.5 0 1 0 3 0v-7.114l2.195 2.196c.293.293.677.439 1.061.439s.768-.146 1.061-.439a1.501 1.501 0 0 0 0-2.121zM100.96 116.162c-.27.28-.43.67-.43 1.06a1.498 1.498 0 0 0 2.56 1.061c.28-.28.44-.67.44-1.061 0-.39-.16-.779-.44-1.06-.559-.56-1.559-.56-2.13 0zM100.971 120.662c-.28.28-.44.67-.44 1.06a1.498 1.498 0 0 0 2.56 1.061c.28-.28.44-.67.44-1.061 0-.39-.16-.779-.44-1.06-.56-.56-1.571-.56-2.12 0zM100.96 125.162c-.27.28-.43.67-.43 1.06a1.498 1.498 0 0 0 2.56 1.061c.28-.28.44-.67.44-1.061 0-.39-.16-.779-.44-1.06-.559-.56-1.559-.56-2.13 0z" style="" fill="#33363a" data-original="#33363a" class=""></path></g></svg>