<svg xmlns="http://www.w3.org/2000/svg" version="1.1" xmlns:xlink="http://www.w3.org/1999/xlink" xmlns:svgjs="http://svgjs.com/svgjs" width="512" height="512" x="0" y="0" viewBox="0 0 127.938 127.938" style="enable-background:new 0 0 512 512" xml:space="preserve" class=""><g><path d="M63.969 126.438a6.996 6.996 0 0 1-5.671-2.896l-35.866-49.57a7 7 0 0 1-1.329-4.104V29.206a7.001 7.001 0 0 1 3.5-6.063L60.468 2.434a7.004 7.004 0 0 1 7.001 0l35.866 20.709a7.001 7.001 0 0 1 3.5 6.063v40.663a7.002 7.002 0 0 1-1.329 4.104L69.64 123.541a6.994 6.994 0 0 1-5.671 2.897zM35.103 67.602l28.866 39.894 28.866-39.894V33.247L63.969 16.58 35.103 33.247v34.355z" style="" fill="#7bc7ff" data-original="#7bc7ff"></path><path d="M103.335 32.143 67.469 11.434a7.004 7.004 0 0 0-7.001 0L24.603 32.143a7.001 7.001 0 0 0-3.5 6.063v31.663c0 1.474.465 2.909 1.329 4.104l35.866 49.569a6.997 6.997 0 0 0 5.671 2.896 6.996 6.996 0 0 0 5.671-2.896l35.866-49.569a7 7 0 0 0 1.329-4.104V38.206a7.001 7.001 0 0 0-3.5-6.063zm-10.5 10.104v34.356l-28.866 39.894-28.866-39.895V33.247L63.969 16.58l28.866 16.667v9z" style="" fill="#0086ff" data-original="#0086ff"></path><path d="M63.969 127.938a8.52 8.52 0 0 1-6.887-3.518L21.217 74.851a8.445 8.445 0 0 1-1.613-4.982V29.206a8.524 8.524 0 0 1 4.249-7.361l35.866-20.71a8.521 8.521 0 0 1 8.5 0l35.866 20.709a8.526 8.526 0 0 1 4.25 7.361v40.663a8.45 8.45 0 0 1-1.613 4.982l-35.866 49.57a8.52 8.52 0 0 1-6.887 3.518zm0-124.939c-.951 0-1.902.245-2.751.734L25.353 24.442a5.518 5.518 0 0 0-2.75 4.764v40.663c0 1.165.361 2.28 1.044 3.225l35.866 49.569c1.031 1.425 2.696 2.275 4.456 2.275s3.425-.851 4.456-2.275l35.866-49.569a5.47 5.47 0 0 0 1.044-3.225V29.206a5.519 5.519 0 0 0-2.75-4.764L66.719 3.733a5.505 5.505 0 0 0-2.75-.734zm0 105.998c-.481 0-.933-.23-1.215-.621L33.888 68.481a1.5 1.5 0 0 1-.285-.879V33.247a1.5 1.5 0 0 1 .75-1.299l28.866-16.667a1.5 1.5 0 0 1 1.5 0l28.866 16.667a1.5 1.5 0 0 1 .75 1.299v34.355c0 .315-.1.623-.285.879l-28.866 39.895a1.5 1.5 0 0 1-1.215.621zm-27.366-41.88 27.366 37.821 27.366-37.821V34.113L63.969 18.312 36.603 34.113v33.004z" style="" fill="#33363a" data-original="#33363a"></path><circle cx="63.969" cy="53.847" r="15.736" style="" fill="#7bc7ff" data-original="#7bc7ff"></circle><path d="M79.705 53.847c0 6.658-7.046 12.054-15.736 12.054-8.689 0-15.735-5.396-15.735-12.054 0-6.651 7.046-12.054 15.735-12.054 8.69 0 15.736 5.403 15.736 12.054z" style="" fill="#0086ff" data-original="#0086ff"></path><path d="M48.233 53.847c0 8.691 7.046 15.737 15.735 15.737 8.69 0 15.736-7.046 15.736-15.737H48.233z" style="" fill="#ffffff" data-original="#ffffff"></path><path d="M63.968 65.901c8.69 0 15.736-5.396 15.736-12.054H48.233c0 6.658 7.046 12.054 15.735 12.054z" style="" fill="#dce6ea" data-original="#dce6ea"></path><path d="M63.969 36.612c-9.503 0-17.235 7.731-17.235 17.235 0 9.505 7.732 17.237 17.235 17.237 9.504 0 17.236-7.732 17.236-17.237 0-9.504-7.733-17.235-17.236-17.235zm0 3c7.343 0 13.403 5.589 14.156 12.735h-28.31c.751-7.147 6.811-12.735 14.154-12.735zm0 28.472c-7.343 0-13.403-5.589-14.155-12.737h28.31c-.752 7.148-6.812 12.737-14.155 12.737z" style="" fill="#33363a" data-original="#33363a"></path><circle cx="63.968" cy="55.651" r="5.202" style="" fill="#a7bbc1" data-original="#a7bbc1"></circle><circle cx="63.968" cy="53.881" r="5.202" style="" fill="#ffffff" data-original="#ffffff"></circle><path d="M60.29 57.559a5.202 5.202 0 0 1 7.357-7.356" style="" fill="#d8e5ea" data-original="#d8e5ea"></path><path d="M63.969 60.584a6.656 6.656 0 0 1-4.74-1.965c-1.265-1.265-1.962-2.947-1.962-4.738s.697-3.475 1.963-4.739a6.66 6.66 0 0 1 4.74-1.963c1.791 0 3.474.697 4.739 1.963a6.659 6.659 0 0 1 1.963 4.74 6.651 6.651 0 0 1-1.964 4.738 6.656 6.656 0 0 1-4.739 1.964zm0-10.405c-.989 0-1.919.385-2.619 1.084s-1.084 1.629-1.084 2.618.385 1.919 1.083 2.616c1.4 1.403 3.839 1.399 5.236.002a3.673 3.673 0 0 0 1.085-2.618c0-.989-.385-1.919-1.084-2.617l-.001-.001a3.67 3.67 0 0 0-2.616-1.084z" style="" fill="#33363a" data-original="#33363a"></path></g></svg>