<svg xmlns="http://www.w3.org/2000/svg" version="1.1" xmlns:xlink="http://www.w3.org/1999/xlink" xmlns:svgjs="http://svgjs.com/svgjs" width="512" height="512" x="0" y="0" viewBox="0 0 127.559 127.559" style="enable-background:new 0 0 512 512" xml:space="preserve" class=""><g><path d="M90.334 72.899c0 14.666-11.889 24.336-26.555 24.336s-26.555-9.67-26.555-24.336 11.89-26.555 26.556-26.555 26.554 11.889 26.554 26.555z" style="" fill="#ff1a1a" data-original="#ff1a1a"></path><path d="M90.334 72.899H37.225c0 3.455 1.128 7.295 3.112 10.961l-.484.484 23.927 41.715 23.927-41.715-.484-.484c1.983-3.666 3.111-7.506 3.111-10.961z" style="" fill="#d8e5ea" data-original="#d8e5ea"></path><path d="M51.298 72.899H37.225c0 3.455 1.128 7.295 3.112 10.961l-.484.484 18.956 33.049h4.971V72.899H51.298z" style="" fill="#ffffff" data-original="#ffffff"></path><path d="M87.711 72.899c-.159.32-.317.641-.489.961l.484.484-23.926 41.715-23.927-41.715.484-.484c-.172-.32-.33-.641-.489-.961h-2.623c0 3.455 1.128 7.295 3.112 10.961l-.484.484 23.927 41.715 23.927-41.715-.484-.484c1.984-3.666 3.112-7.506 3.112-10.961h-2.624z" style="" fill="#a7bbc1" data-original="#a7bbc1"></path><path d="M63.78 52.559c-14.666 0-26.555 9.107-26.555 20.34h53.109c0-11.232-11.888-20.34-26.554-20.34z" style="" fill="#d60909" data-original="#d60909"></path><path d="M63.78 52.559v20.34h26.555c-.001-11.232-11.889-20.34-26.555-20.34z" style="" fill="#b50b0b" data-original="#b50b0b"></path><circle cx="63.78" cy="75.354" r="7.22" style="" fill="#a7bbc1" data-original="#a7bbc1"></circle><path d="M68.085 45.175a5.882 5.882 0 0 0 1.604-4.034c0-2.74-1.876-5.043-4.409-5.71v-3.866a1.5 1.5 0 1 0-3 0v3.866c-2.533.667-4.409 2.97-4.409 5.71 0 1.56.612 2.977 1.604 4.034-13.433 2.078-23.749 13.718-23.749 27.724 0 4.354.985 8.401 2.927 12.032.04.074.085.145.137.211L62.475 126.8a1.501 1.501 0 0 0 2.608 0l23.658-41.622.028-.037c.051-.066.097-.137.137-.211 1.942-3.63 2.927-7.678 2.927-12.032.001-14.004-10.315-25.645-23.748-27.723zm-4.305-6.944a2.913 2.913 0 0 1 2.909 2.91c0 1.604-1.305 2.908-2.909 2.908s-2.909-1.305-2.909-2.908a2.913 2.913 0 0 1 2.909-2.91zm0 9.613c13.311 0 24.227 10.435 25.006 23.555H38.774c.779-13.119 11.694-23.555 25.006-23.555zm22.54 35.562-.015.02a1.601 1.601 0 0 0-.118.177l-22.407 39.42-22.407-39.42a1.513 1.513 0 0 0-.118-.177l-.015-.02c-1.448-2.743-2.274-5.767-2.468-9.007h50.016c-.195 3.24-1.021 6.264-2.468 9.007zM63.78 26.315a1.5 1.5 0 0 0 1.5-1.5v-5.168a1.5 1.5 0 1 0-3 0v5.168a1.5 1.5 0 0 0 1.5 1.5zM63.78 14.397a1.5 1.5 0 0 0 1.5-1.5V7.731a1.5 1.5 0 1 0-3 0v5.166a1.5 1.5 0 0 0 1.5 1.5zM63.78 2.98c.39 0 .78-.16 1.06-.44s.44-.67.44-1.06-.16-.78-.44-1.06c-.56-.56-1.56-.56-2.12 0-.28.28-.44.67-.44 1.06s.16.78.44 1.06c.279.28.669.44 1.06.44z" style="" fill="#33363a" data-original="#33363a"></path><circle cx="63.78" cy="72.9" r="7.219" style="" fill="#ffffff" data-original="#ffffff"></circle><path d="M58.675 78.005a7.22 7.22 0 0 1 10.209-10.209" style="" fill="#d8e5ea" data-original="#d8e5ea"></path><path d="M63.78 81.614a8.698 8.698 0 0 1-6.166-2.549c-3.399-3.4-3.399-8.932 0-12.331a8.66 8.66 0 0 1 6.166-2.555c2.329 0 4.518.907 6.165 2.554v.001a8.66 8.66 0 0 1 2.553 6.164 8.666 8.666 0 0 1-2.553 6.166 8.686 8.686 0 0 1-6.165 2.55zm0-14.434a5.678 5.678 0 0 0-4.044 1.676 5.726 5.726 0 0 0 0 8.088 5.726 5.726 0 0 0 8.087 0 5.685 5.685 0 0 0 1.675-4.045 5.677 5.677 0 0 0-1.675-4.042v-.001a5.682 5.682 0 0 0-4.043-1.676z" style="" fill="#33363a" data-original="#33363a"></path></g></svg>