<svg xmlns="http://www.w3.org/2000/svg" version="1.1" xmlns:xlink="http://www.w3.org/1999/xlink" xmlns:svgjs="http://svgjs.com/svgjs" width="512" height="512" x="0" y="0" viewBox="0 0 128.169 128.169" style="enable-background:new 0 0 512 512" xml:space="preserve" class=""><g><path d="M84.808 126.005c1.508-21.699 5.67-31.811 11.326-37.834H32.035c5.658 6.023 9.818 16.135 11.32 37.834h41.453z" style="" fill="#1a93d6" data-original="#1a93d6"></path><path d="M74.867 126.005c.784-21.699 2.95-31.811 5.894-37.834h-33.35c2.943 6.023 5.108 16.135 5.89 37.834h21.566z" style="" fill="#ffffff" data-original="#ffffff"></path><path d="M51.759 105.22c3.939.795 8.069 1.219 12.326 1.219s8.387-.426 12.327-1.219c1.077-8.275 2.57-13.41 4.349-17.049h-33.35c1.778 3.639 3.272 8.773 4.348 17.049z" style="" fill="#d9e7e8" data-original="#d9e7e8"></path><path d="M84.81 127.505a1.5 1.5 0 0 1-1.498-1.604c1.214-17.477 4.218-28.87 9.63-36.23H35.228c5.413 7.359 8.415 18.753 9.624 36.23a1.5 1.5 0 0 1-1.393 1.6c-.813.082-1.543-.565-1.6-1.393-1.308-18.881-4.674-30.264-10.918-36.91a1.501 1.501 0 0 1 1.094-2.527h64.099a1.5 1.5 0 0 1 1.094 2.526c-6.243 6.648-9.611 18.032-10.924 36.911a1.5 1.5 0 0 1-1.494 1.397z" style="" fill="#33363a" data-original="#33363a"></path><path d="M113.294 60.212c0 20.676-22.032 37.441-49.209 37.441-27.178 0-49.209-16.766-49.209-37.441 0-20.68 22.031-45.459 49.209-45.459 27.177 0 49.209 24.779 49.209 45.459z" style="" fill="#77d6fc" data-original="#77d6fc"></path><path d="M113.294 60.212c0 20.676-22.032 37.441-49.209 37.441-27.178 0-49.209-16.766-49.209-37.441 0-20.68 22.031-34.928 49.209-34.928 27.177 0 49.209 14.248 49.209 34.928z" style="" fill="#42b1e8" data-original="#42b1e8"></path><path d="M74.563 70.849c0 1.393-4.691 1.643-10.479 1.643s-10.479-.25-10.479-1.643c0-1.395 4.691-5.037 10.479-5.037s10.479 3.642 10.479 5.037z" style="" fill="#77d6fc" data-original="#77d6fc"></path><path d="M113.294 60.212c0 20.676-22.032 37.941-49.209 37.941-27.178 0-49.209-17.266-49.209-37.941 0-20.682 6.261 18.34 49.209 18.34 42.947 0 49.209-39.022 49.209-18.34z" style="" fill="#1a93d6" data-original="#1a93d6"></path><path d="M37.868 93.392a1.5 1.5 0 0 1-.648-.147c-14.931-7.171-23.844-19.519-23.844-33.032 0-21.27 22.619-46.959 50.709-46.959s50.709 25.689 50.709 46.959c0 13.515-8.914 25.862-23.844 33.03a1.5 1.5 0 0 1-1.299-2.705c13.865-6.656 22.143-17.993 22.143-30.325 0-19.911-21.281-43.959-47.709-43.959S16.376 40.301 16.376 60.212c0 12.332 8.277 23.669 22.143 30.327a1.5 1.5 0 0 1-.651 2.853z" style="" fill="#33363a" data-original="#33363a"></path><path d="M47.923 65.028a8.05 8.05 0 0 1-8.053 8.051 8.05 8.05 0 1 1 0-16.102 8.052 8.052 0 0 1 8.053 8.051z" style="" fill="#465652" data-original="#465652"></path><circle cx="35.867" cy="62.411" r="3.281" style="" fill="#ffffff" data-original="#ffffff"></circle><path d="M39.87 55.477c-3.24 0-6.104 1.625-7.831 4.099a4.737 4.737 0 0 0-.3.466 9.482 9.482 0 0 0-1.42 4.985c0 5.267 4.284 9.551 9.551 9.551 5.268 0 9.553-4.284 9.553-9.551s-4.285-9.55-9.553-9.55zm0 16.102a6.558 6.558 0 0 1-6.046-4.034c.688-.018 1.525-.2 2.468-.396.336-.03.66-.093.972-.19.818-.148 1.693-.267 2.606-.267 2.413 0 4.572.813 6.048.853a6.561 6.561 0 0 1-6.048 4.034z" style="" fill="#33363a" data-original="#33363a"></path><circle cx="35.866" cy="62.412" r="1.78" style="" fill="#ffffff" data-original="#ffffff"></circle><path d="M96.35 65.028a8.049 8.049 0 0 1-8.051 8.051 8.05 8.05 0 0 1-8.052-8.051 8.05 8.05 0 0 1 8.052-8.051 8.05 8.05 0 0 1 8.051 8.051z" style="" fill="#465652" data-original="#465652"></path><circle cx="84.294" cy="62.411" r="3.28" style="" fill="#ffffff" data-original="#ffffff"></circle><path d="M88.299 55.477c-3.238 0-6.101 1.623-7.829 4.095a4.804 4.804 0 0 0-.306.475 9.477 9.477 0 0 0-1.417 4.981c0 5.267 4.285 9.551 9.552 9.551s9.551-4.284 9.551-9.551-4.285-9.551-9.551-9.551zm0 16.102a6.56 6.56 0 0 1-6.047-4.034c.688-.018 1.525-.2 2.469-.396.335-.03.658-.093.97-.189.819-.148 1.694-.268 2.609-.268 2.412 0 4.571.813 6.046.853a6.56 6.56 0 0 1-6.047 4.034z" style="" fill="#33363a" data-original="#33363a"></path><circle cx="84.294" cy="62.412" r="1.78" style="" fill="#ffffff" data-original="#ffffff"></circle><path d="M82.419 80.395c0 6.256-8.209 11.33-18.334 11.33s-18.332-5.074-18.332-11.33c0-6.258 8.207-5.861 18.332-5.861s18.334-.396 18.334 5.861z" style="" fill="#d9e7e8" data-original="#d9e7e8"></path><path d="M82.419 80.395c0 6.256-8.209 11.33-18.334 11.33s-18.332-5.074-18.332-11.33c0-6.258 8.207-1.5 18.332-1.5s18.334-4.757 18.334 1.5z" style="" fill="#ffffff" data-original="#ffffff"></path><path d="M64.085 93.226c-11.121 0-19.832-5.636-19.832-12.83 0-1.823.581-3.327 1.727-4.471 2.93-2.924 8.866-2.907 16.398-2.894l1.707.003 1.707-.003c7.526-.016 13.47-.03 16.4 2.894 1.146 1.144 1.727 2.647 1.727 4.471 0 7.194-8.712 12.83-19.834 12.83zm-3.263-17.197c-5.692 0-10.844.144-12.724 2.02-.577.575-.846 1.321-.846 2.347 0 5.328 7.708 9.83 16.832 9.83 9.125 0 16.834-4.502 16.834-9.83 0-1.025-.269-1.771-.846-2.347-2.049-2.045-7.984-2.029-14.274-2.018l-1.714.003-1.714-.003-1.548-.002z" style="" fill="#33363a" data-original="#33363a"></path><path d="M21.232 2.161c-4.703 0-8.517 12.098-8.517 27.021a86.3 86.3 0 0 0 .146 4.969c-4.359-4.738-8.594-7.291-10.45-5.957-2.407 1.731.094 9.324 5.583 16.959 4.764 6.627 10.208 11.1 13.141 11.041.032.002.064.008.097.008 4.704 0 8.517-12.098 8.517-27.019 0-14.924-3.812-27.022-8.517-27.022z" style="" fill="#ffffff" data-original="#ffffff"></path><path d="M2.932 36.284c1.115 2.693 2.839 5.773 5.064 8.869 4.764 6.627 10.208 11.1 13.141 11.041.032.002.064.008.097.008 4.257 0 7.784-9.91 8.415-22.853-.631-12.945-4.158-22.854-8.415-22.854-4.246 0-7.766 9.861-8.409 22.76.014.297.021.601.039.896l-.074-.078a84.363 84.363 0 0 0 .074 8.412c-3.996-4.343-7.881-6.84-9.932-6.201z" style="" fill="#d9e7e8" data-original="#d9e7e8"></path><path d="M21.232.661c-6.576 0-10.017 14.348-10.017 28.521 0 .409.003.821.009 1.235-2.968-2.665-7.01-5.363-9.688-3.441-1.23.885-2.354 2.982-.719 7.952 1.102 3.345 3.218 7.286 5.96 11.101 4.187 5.823 10.213 11.663 14.301 11.666.054.004.117.007.154.007 6.576 0 10.017-14.347 10.017-28.52S27.809.661 21.232.661zm.047 54.04-.053-.004a1.383 1.383 0 0 0-.091-.003l-.061.001c-1.827 0-6.684-3.213-11.862-10.418-2.568-3.571-4.538-7.225-5.546-10.287-1.054-3.202-.616-4.408-.38-4.578.632-.449 3.757.734 8.185 5.452v2.184c0 3.032 2.468 5.5 5.5 5.5h.744c3.032 0 5.5-2.468 5.5-5.5v-3.115a1.5 1.5 0 0 0-3 0v3.115c0 1.379-1.121 2.5-2.5 2.5h-.744a2.502 2.502 0 0 1-2.5-2.5v-3.115c0-.228-.055-.442-.146-.635a84.33 84.33 0 0 1-.11-4.115c0-15.579 4.155-25.521 7.017-25.521s7.017 9.942 7.017 25.521c0 15.493-4.11 25.411-6.97 25.518z" style="" fill="#33363a" data-original="#33363a"></path><path d="M106.937 2.161c4.703 0 8.517 12.098 8.517 27.021 0 1.697-.052 3.357-.146 4.969 4.358-4.738 8.593-7.291 10.449-5.957 2.407 1.731-.094 9.324-5.583 16.959-4.763 6.627-10.208 11.1-13.14 11.041-.033.002-.064.008-.098.008-4.703 0-8.516-12.098-8.516-27.019.001-14.924 3.813-27.022 8.517-27.022z" style="" fill="#ffffff" data-original="#ffffff"></path><path d="M125.237 36.284c-1.115 2.693-2.838 5.773-5.063 8.869-4.763 6.627-10.208 11.1-13.14 11.041-.033.002-.064.008-.098.008-4.256 0-7.783-9.91-8.415-22.853.632-12.945 4.159-22.854 8.415-22.854 4.246 0 7.766 9.861 8.41 22.76-.014.297-.022.601-.039.896.024-.027.049-.053.074-.078.045 1.127.071 2.275.071 3.441 0 1.699-.052 3.359-.146 4.971 3.996-4.343 7.881-6.84 9.931-6.201z" style="" fill="#d9e7e8" data-original="#d9e7e8"></path><path d="M126.632 26.976c-2.675-1.926-6.72.776-9.688 3.441.006-.413.009-.825.009-1.235 0-14.174-3.44-28.521-10.017-28.521-6.575 0-10.016 14.348-10.016 28.521s3.44 28.52 10.016 28.52c.021 0 .088-.004.137-.007h.016c4.088-.001 10.117-5.842 14.303-11.666 2.742-3.814 4.858-7.756 5.96-11.101 1.635-4.969.511-7.067-.72-7.952zm-2.13 7.014c-1.008 3.063-2.978 6.716-5.546 10.288-5.179 7.205-10.034 10.417-11.861 10.417l-.03-.001a2.237 2.237 0 0 0-.173.007c-2.859-.104-6.971-10.022-6.971-25.519 0-15.579 4.155-25.521 7.016-25.521 2.861 0 7.017 9.942 7.017 25.521 0 1.356-.042 2.736-.109 4.113a1.479 1.479 0 0 0-.147.637v3.115c0 1.379-1.121 2.5-2.5 2.5h-.744a2.502 2.502 0 0 1-2.5-2.5v-3.115a1.5 1.5 0 0 0-3 0v3.115c0 3.032 2.468 5.5 5.5 5.5h.744c3.032 0 5.5-2.468 5.5-5.5v-2.183c4.428-4.718 7.562-5.901 8.184-5.453.236.171.674 1.377-.38 4.579z" style="" fill="#33363a" data-original="#33363a"></path><circle cx="64.085" cy="44.198" r="5.307" style="" fill="#ffffff" data-original="#ffffff"></circle><path d="M58.778 44.198a5.307 5.307 0 1 1 10.614 0" style="" fill="#d9e7e8" data-original="#d9e7e8"></path><path d="M64.085 51.005c-3.753 0-6.807-3.054-6.807-6.807s3.054-6.807 6.807-6.807 6.807 3.054 6.807 6.807-3.054 6.807-6.807 6.807zm0-10.613c-2.099 0-3.807 1.708-3.807 3.807s1.708 3.807 3.807 3.807 3.807-1.708 3.807-3.807-1.708-3.807-3.807-3.807z" style="" fill="#33363a" data-original="#33363a"></path><path d="M69.392 45.698a1.5 1.5 0 0 1-1.5-1.5c0-2.099-1.708-3.807-3.807-3.807s-3.807 1.708-3.807 3.807a1.5 1.5 0 0 1-3 0c0-3.753 3.054-6.807 6.807-6.807s6.807 3.054 6.807 6.807a1.5 1.5 0 0 1-1.5 1.5z" style="" fill="#33363a" data-original="#33363a"></path></g></svg>