<svg xmlns="http://www.w3.org/2000/svg" version="1.1" xmlns:xlink="http://www.w3.org/1999/xlink" xmlns:svgjs="http://svgjs.com/svgjs" width="512" height="512" x="0" y="0" viewBox="0 0 126.853 126.853" style="enable-background:new 0 0 512 512" xml:space="preserve" class=""><g><circle cx="103.42" cy="85.303" r="21.931" style="" fill="#ff8f8f" data-original="#ff8f8f"></circle><ellipse cx="103.42" cy="85.303" rx="21.931" ry="16.799" style="" fill="#ff1a1a" data-original="#ff1a1a"></ellipse><path d="M81.489 85.303c0 12.113 9.82 21.932 21.932 21.932 12.111 0 21.93-9.818 21.93-21.932H81.489z" style="" fill="#ffffff" data-original="#ffffff"></path><path d="M103.42 102.101c12.111 0 21.93-7.521 21.93-16.799H81.489c0 9.278 9.82 16.799 21.931 16.799z" style="" fill="#d8e5ea" data-original="#d8e5ea"></path><circle cx="23.431" cy="41.519" r="21.931" style="" fill="#36c6ff" data-original="#36c6ff" class=""></circle><ellipse cx="23.431" cy="41.519" rx="21.931" ry="16.799" style="" fill="#0086ff" data-original="#0086ff" class=""></ellipse><path d="M1.501 41.519c0 12.113 9.82 21.932 21.932 21.932 12.111 0 21.93-9.818 21.93-21.932H1.501z" style="" fill="#ffffff" data-original="#ffffff"></path><path d="M23.432 58.318c12.111 0 21.93-7.521 21.93-16.799H1.501c0 9.278 9.82 16.799 21.931 16.799z" style="" fill="#d8e5ea" data-original="#d8e5ea"></path><path d="M126.85 85.303c0-12.919-10.511-23.43-23.43-23.43-12.92 0-23.432 10.511-23.432 23.43 0 12.857 10.411 23.326 23.245 23.427-11.014 9.701-25 15.013-39.807 15.013-16.115 0-31.265-6.275-42.66-17.671a1.5 1.5 0 1 0-2.121 2.121c11.962 11.962 27.865 18.55 44.781 18.55 16.885 0 32.762-6.566 44.715-18.486 10.665-2.192 18.709-11.651 18.709-22.954zm-23.429-20.43c10.758 0 19.58 8.365 20.354 18.93h-40.71c.773-10.565 9.596-18.93 20.356-18.93zm0 40.861c-10.759 0-19.582-8.366-20.356-18.932h40.709c-.773 10.566-9.595 18.932-20.353 18.932zM46.862 41.519c0-12.856-10.41-23.323-23.242-23.425C47.289-2.723 83.49-1.847 106.087 20.75c.293.293.677.439 1.061.439s.768-.146 1.061-.439a1.5 1.5 0 0 0 0-2.121C83.537-6.042 43.407-6.062 18.71 18.568 8.046 20.759.001 30.217.001 41.519c0 12.92 10.512 23.432 23.432 23.432 12.918 0 23.429-10.512 23.429-23.432zM23.432 21.09c10.758 0 19.58 8.365 20.354 18.93H3.077c.773-10.565 9.596-18.93 20.355-18.93zM3.077 43.019h40.709c-.773 10.565-9.595 18.932-20.354 18.932-10.759 0-19.582-8.366-20.355-18.932z" style="" fill="#33363a" data-original="#33363a" class=""></path><path d="M123.852 37.865c.412.093.842-.031 1.139-.33.299-.299.424-.729.328-1.139l-5.072-22.242-18.637 18.638 22.242 5.073z" style="" fill="#ff8f8f" data-original="#ff8f8f"></path><path d="M118.79 32.226a.74.74 0 0 0 .691-.202.735.735 0 0 0 .201-.691l-3.086-13.528-11.336 11.336 13.53 3.085z" style="" fill="#ff1a1a" data-original="#ff1a1a"></path><path d="M124.129 39.396c-.201 0-.404-.022-.606-.067l-22.247-5.074a1.501 1.501 0 0 1 .668-2.926l21.815 4.977-4.976-21.817a1.5 1.5 0 0 1 2.926-.668l5.072 22.242a2.702 2.702 0 0 1-.73 2.533 2.7 2.7 0 0 1-1.922.8z" style="" fill="#33363a" data-original="#33363a" class=""></path><path d="M117.306 31.341c-.4 0-.79-.16-1.07-.439a1.479 1.479 0 0 1-.43-1.061c0-.39.15-.78.43-1.06.561-.561 1.57-.561 2.13 0 .28.279.44.67.44 1.06 0 .4-.17.79-.44 1.061-.279.279-.67.439-1.06.439zM114.116 28.161c-.39 0-.779-.16-1.06-.44-.28-.279-.44-.67-.44-1.06 0-.4.16-.78.44-1.061.56-.56 1.55-.56 2.12-.01.28.29.439.68.439 1.07s-.159.78-.439 1.06c-.28.281-.67.441-1.06.441zM110.926 24.971c-.391 0-.78-.16-1.061-.439-.279-.28-.43-.66-.43-1.061 0-.39.15-.779.43-1.06.551-.55 1.561-.561 2.12 0 .28.28.44.67.44 1.06 0 .391-.16.78-.431 1.061a1.537 1.537 0 0 1-1.068.439z" style="" fill="#33363a" data-original="#33363a" class=""></path><path d="M3.001 88.959a1.226 1.226 0 0 0-1.467 1.469l5.07 22.242 18.639-18.639-22.242-5.072z" style="" fill="#36c6ff" data-original="#36c6ff" class=""></path><path d="M8.063 94.597a.746.746 0 0 0-.693.202.744.744 0 0 0-.201.69l3.086 13.529L21.59 97.684 8.063 94.597z" style="" fill="#0086ff" data-original="#0086ff" class=""></path><path d="M6.603 114.17a1.5 1.5 0 0 1-1.462-1.167L.071 90.761a2.707 2.707 0 0 1 .724-2.529 2.718 2.718 0 0 1 2.539-.735l22.243 5.072a1.5 1.5 0 0 1-.668 2.926L3.093 90.518l4.974 21.818a1.5 1.5 0 0 1-1.464 1.834z" style="" fill="#33363a" data-original="#33363a" class=""></path><path d="M9.546 98.48c-.391 0-.78-.159-1.061-.439a1.52 1.52 0 0 1-.439-1.061c0-.399.16-.779.439-1.06.561-.56 1.57-.56 2.13 0 .271.28.431.66.431 1.06 0 .391-.16.78-.431 1.061-.289.28-.669.439-1.069.439zM12.736 101.661c-.39 0-.779-.16-1.06-.44a1.497 1.497 0 0 1 0-2.121c.56-.56 1.56-.56 2.12 0a1.504 1.504 0 0 1-1.06 2.561zM15.926 104.85a1.502 1.502 0 0 1-1.5-1.5c0-.399.16-.779.439-1.06.551-.561 1.561-.561 2.12 0a1.499 1.499 0 0 1-1.059 2.56z" style="" fill="#33363a" data-original="#33363a" class=""></path><circle cx="23.432" cy="44.032" r="7.251" style="" fill="#a7bbc1" data-original="#a7bbc1"></circle><circle cx="23.432" cy="41.567" r="7.251" style="" fill="#ffffff" data-original="#ffffff"></circle><path d="M18.305 46.695a7.252 7.252 0 0 1 10.254-10.256" style="" fill="#d8e5ea" data-original="#d8e5ea"></path><path d="M23.432 50.313a8.729 8.729 0 0 1-6.188-2.558c-3.412-3.412-3.412-8.965 0-12.377s8.963-3.412 12.375 0 3.412 8.965 0 12.377a8.72 8.72 0 0 1-6.187 2.558zm0-14.495a5.732 5.732 0 0 0-4.066 1.682 5.76 5.76 0 0 0 0 8.135 5.76 5.76 0 0 0 8.133 0 5.76 5.76 0 0 0 0-8.135 5.734 5.734 0 0 0-4.067-1.682z" style="" fill="#33363a" data-original="#33363a" class=""></path><circle cx="103.421" cy="87.815" r="7.251" style="" fill="#a7bbc1" data-original="#a7bbc1"></circle><circle cx="103.421" cy="85.35" r="7.251" style="" fill="#ffffff" data-original="#ffffff"></circle><path d="M98.294 90.478a7.252 7.252 0 0 1 10.254-10.256" style="" fill="#d8e5ea" data-original="#d8e5ea"></path><path d="M103.421 94.097a8.729 8.729 0 0 1-6.188-2.558c-3.412-3.412-3.412-8.965 0-12.377s8.963-3.412 12.375 0 3.412 8.965 0 12.377a8.727 8.727 0 0 1-6.187 2.558zm0-14.496a5.732 5.732 0 0 0-4.066 1.682 5.76 5.76 0 0 0 0 8.135 5.76 5.76 0 0 0 8.133 0 5.76 5.76 0 0 0 0-8.135 5.738 5.738 0 0 0-4.067-1.682z" style="" fill="#33363a" data-original="#33363a" class=""></path><path d="M94.147 79.581a.96.96 0 0 0 1.149-1.15l-3.971-17.413L76.733 75.61l17.414 3.971z" style="" fill="#ffffff" data-original="#ffffff"></path><path d="M90.182 75.167a.584.584 0 0 0 .699-.699l-2.414-10.591-8.875 8.875 10.59 2.415z" style="" fill="#e4e9ed" data-original="#e4e9ed"></path><path d="M94.367 81.106c-.186 0-.372-.021-.559-.064L76.4 77.073a1.5 1.5 0 0 1 .666-2.926l16.576 3.78-3.78-16.576a1.5 1.5 0 1 1 2.926-.666l3.971 17.413a2.472 2.472 0 0 1-.658 2.286 2.455 2.455 0 0 1-1.734.722z" style="" fill="#33363a" data-original="#33363a" class=""></path><path d="M86.526 72.31a1.5 1.5 0 0 1-1.5-1.5c0-.399.16-.779.431-1.06.569-.56 1.569-.56 2.13 0a1.502 1.502 0 0 1 0 2.121c-.281.28-.67.439-1.061.439zM81.424 67.209c-.384 0-.768-.146-1.061-.439L54.594 41a1.5 1.5 0 1 1 2.121-2.121l25.77 25.77a1.5 1.5 0 0 1-1.061 2.56z" style="" fill="#33363a" data-original="#33363a" class=""></path><path d="M32.706 47.242a.956.956 0 0 0-1.149 1.149l3.971 17.413 14.59-14.592-17.412-3.97z" style="" fill="#ffffff" data-original="#ffffff"></path><path d="M36.669 51.655a.585.585 0 0 0-.699.699l2.416 10.591 8.875-8.875-10.592-2.415z" style="" fill="#e4e9ed" data-original="#e4e9ed"></path><path d="M35.527 67.304a1.5 1.5 0 0 1-1.462-1.167l-3.971-17.413c-.19-.83.057-1.687.66-2.288a2.479 2.479 0 0 1 2.292-.654L50.45 49.75a1.5 1.5 0 0 1-.666 2.926L33.21 48.897l3.78 16.575a1.5 1.5 0 0 1-1.463 1.832z" style="" fill="#33363a" data-original="#33363a" class=""></path><path d="M40.326 57.511a1.5 1.5 0 0 1-1.06-2.56c.56-.55 1.56-.561 2.12 0 .28.279.439.67.439 1.06 0 .391-.159.78-.439 1.061-.28.278-.67.439-1.06.439zM71.198 88.384c-.384 0-.768-.146-1.061-.439l-25.77-25.769a1.5 1.5 0 1 1 2.121-2.121l25.77 25.769a1.5 1.5 0 0 1-1.06 2.56z" style="" fill="#33363a" data-original="#33363a" class=""></path></g></svg>