<svg xmlns="http://www.w3.org/2000/svg" version="1.1" xmlns:xlink="http://www.w3.org/1999/xlink" xmlns:svgjs="http://svgjs.com/svgjs" width="512" height="512" x="0" y="0" viewBox="0 0 127.938 127.938" style="enable-background:new 0 0 512 512" xml:space="preserve" class=""><g><path d="M114.67 52.203H99.682a37.235 37.235 0 0 0-2.154-5.153l10.613-10.611c4.595-4.596 4.595-12.046 0-16.642-4.597-4.594-12.047-4.594-16.643 0L80.889 30.409a37.749 37.749 0 0 0-5.154-2.155V13.268c0-6.5-5.268-11.767-11.766-11.767-6.5 0-11.768 5.267-11.768 11.767v14.985a37.698 37.698 0 0 0-5.15 2.155L36.439 19.795c-4.597-4.594-12.048-4.594-16.643 0-4.595 4.597-4.595 12.047 0 16.642L30.41 47.049a37.355 37.355 0 0 0-2.156 5.153H13.266C6.769 52.203 1.5 57.469 1.5 63.97c0 6.497 5.268 11.765 11.768 11.765h14.986a37.115 37.115 0 0 0 2.154 5.15L19.797 91.499c-4.595 4.598-4.595 12.049 0 16.641a11.733 11.733 0 0 0 8.322 3.448c3.01 0 6.022-1.149 8.32-3.448l10.609-10.611a37.728 37.728 0 0 0 5.152 2.156v14.986c0 6.497 5.268 11.766 11.768 11.766 6.498 0 11.766-5.269 11.766-11.766V99.684a37.88 37.88 0 0 0 5.154-2.156L91.5 108.139a11.726 11.726 0 0 0 8.32 3.448c3.012 0 6.023-1.149 8.32-3.448 4.597-4.596 4.595-12.048 0-16.641L97.527 80.889a37.247 37.247 0 0 0 2.154-5.154l14.99-.002c6.497 0 11.766-5.27 11.766-11.765-.001-6.499-5.27-11.767-11.767-11.765zM78.059 63.968c0 7.769-6.32 14.091-14.09 14.091s-14.092-6.322-14.092-14.091c0-7.771 6.322-14.092 14.092-14.092s14.09 6.322 14.09 14.092z" style="" fill="#ffffff" data-original="#ffffff" class=""></path><path d="M80.889 97.528 91.5 108.139a11.726 11.726 0 0 0 8.32 3.448c3.012 0 6.023-1.149 8.32-3.448a11.716 11.716 0 0 0 2.123-2.898 11.795 11.795 0 0 0-2.123-2.899l-10.613-10.61a37.235 37.235 0 0 0 2.154-5.153h3.537l-5.691-5.69a37.247 37.247 0 0 0 2.154-5.154l14.99-.002c4.539 0 8.473-2.576 10.435-6.342-1.962-3.771-5.896-6.347-10.437-6.347H99.682a37.286 37.286 0 0 0-2.154-5.153l5.691-5.688h-3.537a37.235 37.235 0 0 0-2.154-5.153l10.613-10.611a11.746 11.746 0 0 0 2.123-2.899 11.792 11.792 0 0 0-2.123-2.897c-4.597-4.598-12.047-4.598-16.643 0L80.889 41.25a37.74 37.74 0 0 0-5.154-2.153V24.11c0-6.498-5.268-11.766-11.766-11.766-6.5 0-11.768 5.268-11.768 11.766v14.988a37.815 37.815 0 0 0-5.15 2.153l-10.612-10.61c-4.597-4.598-12.048-4.598-16.643 0a11.792 11.792 0 0 0-2.123 2.897 11.746 11.746 0 0 0 2.123 2.899L30.41 47.049a37.355 37.355 0 0 0-2.156 5.153h-3.536l5.692 5.688a37.459 37.459 0 0 0-2.156 5.153H13.266c-4.541 0-8.475 2.579-10.436 6.347 1.961 3.766 5.897 6.344 10.438 6.344h14.986a37.115 37.115 0 0 0 2.154 5.15l-5.692 5.693h3.538a37.23 37.23 0 0 0 2.154 5.151l-10.611 10.611a11.82 11.82 0 0 0-2.123 2.899 11.741 11.741 0 0 0 2.123 2.898 11.733 11.733 0 0 0 8.322 3.448c3.01 0 6.022-1.149 8.32-3.448l10.609-10.611a37.728 37.728 0 0 0 5.152 2.156v14.987c0 6.497 5.268 11.766 11.768 11.766 6.498 0 11.766-5.269 11.766-11.766V99.684a37.892 37.892 0 0 0 5.155-2.156zm-16.92-11.629c-7.77 0-14.092-3.318-14.092-11.088a14 14 0 0 1 1.088-5.42 14.014 14.014 0 0 1-1.088-5.423c0-7.771 6.322-14.092 14.092-14.092s14.09 6.321 14.09 14.092c0 1.921-.389 3.753-1.088 5.423a14 14 0 0 1 1.088 5.42c0 7.77-6.321 11.088-14.09 11.088z" style="" fill="#d8e5ea" data-original="#d8e5ea" class=""></path><path d="M63.969 127.936c-7.315 0-13.268-5.951-13.268-13.266v-13.921a39.826 39.826 0 0 1-3.35-1.402L37.5 109.2a13.182 13.182 0 0 1-9.381 3.888 13.183 13.183 0 0 1-9.383-3.888c-2.506-2.504-3.886-5.834-3.886-9.378s1.38-6.876 3.886-9.383l9.853-9.855a38.92 38.92 0 0 1-1.401-3.348h-13.92C5.952 77.235 0 71.284 0 63.97c0-7.316 5.951-13.268 13.266-13.268h13.922a39.426 39.426 0 0 1 1.403-3.351l-9.854-9.854c-5.172-5.172-5.172-13.59 0-18.764 5.173-5.171 13.591-5.17 18.764 0l9.854 9.856a39.496 39.496 0 0 1 3.347-1.403V13.268C50.702 5.953 56.654.001 63.97.001c7.314 0 13.266 5.951 13.266 13.267v13.919c1.112.406 2.233.875 3.351 1.404l9.853-9.856c5.172-5.171 13.59-5.17 18.764 0 5.172 5.174 5.172 13.592 0 18.764l-9.855 9.854a39.162 39.162 0 0 1 1.403 3.351H114.677c3.541 0 6.871 1.379 9.376 3.884a13.183 13.183 0 0 1 3.888 9.381c0 7.314-5.951 13.265-13.266 13.265l-13.923.002a39.11 39.11 0 0 1-1.403 3.351l9.855 9.852a13.18 13.18 0 0 1 3.887 9.38c0 3.544-1.38 6.876-3.887 9.382a13.173 13.173 0 0 1-9.381 3.888 13.182 13.182 0 0 1-9.381-3.888l-9.854-9.854a39.575 39.575 0 0 1-3.352 1.403v13.921c-.002 7.314-5.953 13.265-13.267 13.265zm-16.92-31.908c.23 0 .463.053.679.162a36.502 36.502 0 0 0 4.948 2.071 1.5 1.5 0 0 1 1.025 1.423v14.986c0 5.661 4.606 10.266 10.268 10.266 5.66 0 10.266-4.605 10.266-10.266V99.684a1.5 1.5 0 0 1 1.026-1.423 36.56 36.56 0 0 0 4.95-2.071 1.5 1.5 0 0 1 1.738.278l10.611 10.611a10.202 10.202 0 0 0 7.26 3.009c2.743 0 5.321-1.068 7.259-3.008a10.203 10.203 0 0 0 3.009-7.261 10.194 10.194 0 0 0-3.008-7.258L96.467 81.95a1.502 1.502 0 0 1-.278-1.738 35.878 35.878 0 0 0 2.068-4.947 1.5 1.5 0 0 1 1.425-1.03l14.99-.002c5.66 0 10.266-4.604 10.266-10.265a10.203 10.203 0 0 0-3.009-7.26 10.194 10.194 0 0 0-7.255-3.006H99.682a1.502 1.502 0 0 1-1.425-1.03 36.025 36.025 0 0 0-2.067-4.946 1.499 1.499 0 0 1 .277-1.738l10.613-10.611c4.002-4.003 4.002-10.518 0-14.521-4.005-4.002-10.519-4.001-14.521 0l-10.61 10.613a1.497 1.497 0 0 1-1.736.278 36.567 36.567 0 0 0-4.949-2.07 1.5 1.5 0 0 1-1.029-1.424V13.268c0-5.661-4.605-10.267-10.266-10.267S53.701 7.606 53.701 13.268v14.985c0 .647-.414 1.221-1.028 1.424a36.405 36.405 0 0 0-4.945 2.07 1.5 1.5 0 0 1-1.737-.278L35.379 20.856c-4.003-4-10.517-4.003-14.521 0-4.002 4.004-4.002 10.519 0 14.521l10.613 10.611a1.5 1.5 0 0 1 .277 1.739 36.047 36.047 0 0 0-2.07 4.947 1.499 1.499 0 0 1-1.424 1.028H13.266C7.605 53.703 3 58.309 3 63.97c0 5.66 4.606 10.265 10.268 10.265h14.986a1.5 1.5 0 0 1 1.425 1.03 35.722 35.722 0 0 0 2.067 4.942 1.5 1.5 0 0 1-.277 1.739L20.857 92.559a10.21 10.21 0 0 0-3.007 7.262c0 2.742 1.068 5.319 3.007 7.257a10.201 10.201 0 0 0 7.262 3.009 10.2 10.2 0 0 0 7.26-3.009l10.609-10.611a1.5 1.5 0 0 1 1.061-.439zm16.92-16.469c-8.598 0-15.592-6.994-15.592-15.591s6.994-15.592 15.592-15.592c8.597 0 15.59 6.995 15.59 15.592 0 8.597-6.994 15.591-15.59 15.591zm0-28.183c-6.943 0-12.592 5.648-12.592 12.592 0 6.942 5.648 12.591 12.592 12.591 6.942 0 12.59-5.648 12.59-12.591s-5.648-12.592-12.59-12.592z" style="" fill="#33363a" data-original="#33363a" class=""></path><circle cx="63.969" cy="63.967" r="21.931" style="" fill="#95a2a5" data-original="#95a2a5"></circle><ellipse cx="63.969" cy="63.967" rx="21.931" ry="16.799" style="" fill="#808e93" data-original="#808e93"></ellipse><path d="M42.038 63.967c0 12.113 9.819 21.932 21.931 21.932S85.9 76.081 85.9 63.967H42.038z" style="" fill="#ffffff" data-original="#ffffff" class=""></path><path d="M63.969 80.766c12.111 0 21.931-7.522 21.931-16.799H42.038c0 9.278 9.819 16.799 21.931 16.799z" style="" fill="#d8e5ea" data-original="#d8e5ea" class=""></path><path d="M63.969 40.538c-12.92 0-23.431 10.511-23.431 23.43 0 12.92 10.511 23.432 23.431 23.432S87.4 76.889 87.4 63.968c-.001-12.92-10.511-23.43-23.431-23.43zm0 3c10.759 0 19.582 8.365 20.355 18.93h-40.71c.773-10.566 9.595-18.93 20.355-18.93zm0 40.861c-10.759 0-19.582-8.366-20.355-18.932h40.709c-.773 10.566-9.595 18.932-20.354 18.932z" style="" fill="#33363a" data-original="#33363a" class=""></path><circle cx="63.969" cy="66.48" r="7.251" style="" fill="#a7bbc1" data-original="#a7bbc1"></circle><circle cx="63.969" cy="64.015" r="7.251" style="" fill="#ffffff" data-original="#ffffff" class=""></circle><path d="M58.842 69.143a7.252 7.252 0 0 1 10.254-10.256" style="" fill="#d8e5ea" data-original="#d8e5ea" class=""></path><path d="M63.969 72.761a8.73 8.73 0 0 1-6.188-2.557c-3.412-3.413-3.412-8.965 0-12.377a8.694 8.694 0 0 1 6.188-2.563c2.338 0 4.535.911 6.188 2.563 3.412 3.412 3.412 8.965 0 12.377a8.726 8.726 0 0 1-6.188 2.557zm0-14.498a5.71 5.71 0 0 0-4.066 1.685 5.76 5.76 0 0 0 0 8.135 5.759 5.759 0 0 0 8.133 0 5.76 5.76 0 0 0 0-8.134 5.71 5.71 0 0 0-4.067-1.686z" style="" fill="#33363a" data-original="#33363a" class=""></path></g></svg>