<svg xmlns="http://www.w3.org/2000/svg" version="1.1" xmlns:xlink="http://www.w3.org/1999/xlink" xmlns:svgjs="http://svgjs.com/svgjs" width="512" height="512" x="0" y="0" viewBox="0 0 126.915 126.915" style="enable-background:new 0 0 512 512" xml:space="preserve" class=""><g><path d="M125.415 74.633c0 6.702-5.434 12.137-12.136 12.137H13.635C6.934 86.77 1.5 81.335 1.5 74.633V45.555c0-6.703 5.434-12.136 12.135-12.136h99.644c6.702 0 12.136 5.433 12.136 12.136v29.078z" style="" fill="#ffd00b" data-original="#ffd00b"></path><path d="M113.279 33.419H13.635C6.934 33.419 1.5 38.852 1.5 45.555v23.828c0 6.702 5.434 12.137 12.135 12.137h99.644c6.702 0 12.136-5.435 12.136-12.137V45.555c0-6.703-5.434-12.136-12.136-12.136z" style="" fill="#ff9c0d" data-original="#ff9c0d"></path><path d="M113.279 88.27H13.635C6.117 88.27 0 82.152 0 74.633V45.555c0-7.519 6.117-13.636 13.635-13.636h99.644c7.519 0 13.636 6.117 13.636 13.636v29.078c0 7.519-6.117 13.637-13.636 13.637zM13.635 34.919C7.771 34.919 3 39.69 3 45.555v29.078C3 80.498 7.771 85.27 13.635 85.27h99.644c5.865 0 10.636-4.771 10.636-10.637V45.555c0-5.865-4.771-10.636-10.636-10.636H13.635z" style="" fill="#33363a" data-original="#33363a"></path><path d="M24.009 54.629a1.5 1.5 0 1 0 0-3h-9.445a1.5 1.5 0 0 0-1.5 1.5V66.9a1.5 1.5 0 0 0 1.5 1.5h9.445a1.5 1.5 0 0 0 1.5-1.5v-6.887a1.5 1.5 0 0 0-1.5-1.5h-4.723a1.5 1.5 0 1 0 0 3h3.223V65.4h-6.445V54.629h7.945zM39.357 51.629h-9.445a1.5 1.5 0 0 0-1.5 1.5V66.9a1.5 1.5 0 0 0 1.5 1.5h9.445a1.5 1.5 0 0 0 1.5-1.5V53.129a1.5 1.5 0 0 0-1.5-1.5zm-1.5 13.771h-6.445V54.629h6.445V65.4zM54.706 51.629h-9.444a1.5 1.5 0 1 0 0 3h3.222V66.9a1.5 1.5 0 1 0 3 0V54.629h3.222a1.5 1.5 0 1 0 0-3zM70.055 54.629a1.5 1.5 0 1 0 0-3H60.61a1.5 1.5 0 0 0-1.5 1.5V66.9a1.5 1.5 0 0 0 1.5 1.5h9.444a1.5 1.5 0 1 0 0-3H62.11V54.629h7.945zM85.403 51.629a1.5 1.5 0 0 0-1.5 1.5v5.385h-6.444v-5.385a1.5 1.5 0 1 0-3 0V66.9a1.5 1.5 0 1 0 3 0v-5.387h6.444V66.9a1.5 1.5 0 1 0 3 0V53.129a1.5 1.5 0 0 0-1.5-1.5zM100.753 51.629h-9.445a1.5 1.5 0 0 0-1.5 1.5V66.9a1.5 1.5 0 1 0 3 0v-5.387h6.445V66.9a1.5 1.5 0 1 0 3 0V53.129a1.5 1.5 0 0 0-1.5-1.5zm-7.945 6.885v-3.885h6.445v3.885h-6.445zM106.656 51.629a1.5 1.5 0 0 0-1.5 1.5v9.396a1.5 1.5 0 1 0 3 0v-9.396a1.5 1.5 0 0 0-1.5-1.5zM112.352 51.629a1.5 1.5 0 0 0-1.5 1.5v9.396a1.5 1.5 0 1 0 3 0v-9.396a1.5 1.5 0 0 0-1.5-1.5zM106.656 65.4a1.5 1.5 0 0 0-1.5 1.5v.16a1.5 1.5 0 1 0 3 0v-.16a1.5 1.5 0 0 0-1.5-1.5zM112.352 65.4a1.5 1.5 0 0 0-1.5 1.5v.16a1.5 1.5 0 1 0 3 0v-.16a1.5 1.5 0 0 0-1.5-1.5z" style="" fill="#33363a" data-original="#33363a"></path><path d="M76.716 82.922 63.458 96.18 50.199 82.922" style="" fill="#ffd00b" data-original="#ffd00b"></path><path d="M63.458 97.68c-.384 0-.768-.146-1.061-.439L49.139 83.982a1.5 1.5 0 1 1 2.121-2.121l12.198 12.197 12.198-12.197a1.5 1.5 0 1 1 2.121 2.121L64.518 97.24c-.293.293-.677.44-1.06.44zM63.46 11.785a1.5 1.5 0 0 1-1.5-1.5v-.992a1.5 1.5 0 1 1 3 0v.992a1.5 1.5 0 0 1-1.5 1.5zM63.459 26.65a1.5 1.5 0 0 1-1.5-1.5l.001-5.824a1.5 1.5 0 0 1 3 0l-.001 5.824a1.5 1.5 0 0 1-1.5 1.5zM36.1 17.119c-.381 0-.763-.145-1.055-.434l-.708-.701a1.5 1.5 0 1 1 2.11-2.132l.708.701a1.5 1.5 0 0 1-1.055 2.566zM46.612 27.635c-.384 0-.768-.146-1.061-.44l-4.123-4.127a1.5 1.5 0 0 1 2.122-2.12l4.123 4.127a1.5 1.5 0 0 1-1.061 2.56zM90.818 17.123a1.5 1.5 0 0 1-1.06-2.561l.706-.705a1.5 1.5 0 1 1 2.12 2.122l-.706.705a1.491 1.491 0 0 1-1.06.439zM80.309 27.636a1.498 1.498 0 0 1-1.061-2.56l4.12-4.126a1.5 1.5 0 1 1 2.123 2.121l-4.12 4.126a1.502 1.502 0 0 1-1.062.439zM63.455 119.122a1.5 1.5 0 0 1-1.5-1.5v-.992a1.5 1.5 0 1 1 3 0v.992a1.5 1.5 0 0 1-1.5 1.5zM63.455 109.089a1.5 1.5 0 0 1-1.5-1.5l.001-5.824a1.5 1.5 0 0 1 3 0l-.001 5.824a1.5 1.5 0 0 1-1.5 1.5zM91.524 113.497c-.381 0-.763-.145-1.055-.434l-.708-.701a1.5 1.5 0 1 1 2.11-2.132l.708.701a1.5 1.5 0 0 1-1.055 2.566zM84.426 106.407c-.384 0-.768-.146-1.061-.44l-4.123-4.127a1.5 1.5 0 0 1 2.122-2.12l4.123 4.127a1.5 1.5 0 0 1-1.061 2.56zM35.391 113.497a1.5 1.5 0 0 1-1.06-2.561l.706-.705a1.5 1.5 0 0 1 2.12 2.122l-.706.705a1.491 1.491 0 0 1-1.06.439zM42.486 106.405a1.498 1.498 0 0 1-1.061-2.56l4.12-4.126a1.5 1.5 0 1 1 2.123 2.121l-4.12 4.126a1.5 1.5 0 0 1-1.062.439z" style="" fill="#33363a" data-original="#33363a"></path></g></svg>