<svg xmlns="http://www.w3.org/2000/svg" version="1.1" xmlns:xlink="http://www.w3.org/1999/xlink" xmlns:svgjs="http://svgjs.com/svgjs" width="512" height="512" x="0" y="0" viewBox="0 0 126.334 126.334" style="enable-background:new 0 0 512 512" xml:space="preserve" class=""><g><circle cx="63.167" cy="63.166" r="61.666" style="" fill="#d988ff" data-original="#d988ff" class=""></circle><ellipse cx="63.167" cy="63.166" rx="61.666" ry="47.232" style="" fill="#bf44f2" data-original="#bf44f2" class=""></ellipse><path d="M120.31 39.977c-5.887-14.487-17.115-26.225-31.248-32.775a23.484 23.484 0 0 0-3.174 11.813c0 13.03 10.564 23.595 23.596 23.595a23.513 23.513 0 0 0 10.826-2.633zM6.026 39.977A23.465 23.465 0 0 0 16.85 42.61c13.031 0 23.596-10.565 23.596-23.595 0-4.306-1.16-8.339-3.174-11.813-14.132 6.55-25.361 18.287-31.246 32.775z" style="" fill="#d988ff" data-original="#d988ff" class=""></path><path d="M1.501 63.166c0 34.061 27.609 61.668 61.666 61.668 34.057 0 61.666-27.607 61.666-61.668H1.501z" style="" fill="#ffffff" data-original="#ffffff"></path><path d="M63.167 110.398c34.057 0 61.666-21.148 61.666-47.232H1.501c0 26.084 27.609 47.232 61.666 47.232z" style="" fill="#d8e5ea" data-original="#d8e5ea" class=""></path><path d="M121.718 39.505c-.01-.031-.006-.063-.019-.093-.064-.156-.136-.307-.201-.463-.148-.356-.306-.708-.46-1.061a62.332 62.332 0 0 0-.834-1.841c-.106-.223-.217-.443-.326-.665a62.76 62.76 0 0 0-1.14-2.222l-.109-.197A62.912 62.912 0 0 0 95.972 9.207l-.128-.079a62.628 62.628 0 0 0-2.226-1.281c-.196-.108-.391-.219-.589-.325a63.564 63.564 0 0 0-1.857-.952c-.327-.162-.652-.326-.982-.483-.168-.08-.33-.167-.499-.246-.032-.015-.066-.012-.098-.025A62.755 62.755 0 0 0 63.167 0a62.771 62.771 0 0 0-26.428 5.816c-.032.012-.066.01-.098.025-.169.078-.331.166-.499.246-.33.157-.656.321-.983.484-.624.309-1.244.623-1.855.951-.198.107-.394.217-.591.326a64.1 64.1 0 0 0-2.224 1.28l-.13.08A62.907 62.907 0 0 0 7.733 32.913l-.154.281a63.991 63.991 0 0 0-1.087 2.119c-.127.258-.257.515-.381.776a67.293 67.293 0 0 0-.773 1.706c-.176.399-.353.797-.521 1.201-.058.14-.123.275-.18.416-.011.027-.007.056-.017.083A62.8 62.8 0 0 0 .001 63.166c0 34.831 28.336 63.168 63.166 63.168s63.166-28.337 63.166-63.168a62.807 62.807 0 0 0-4.615-23.661zM89.698 9.183c12.756 6.295 22.969 16.975 28.663 30.064a21.811 21.811 0 0 1-8.878 1.862c-12.184 0-22.096-9.912-22.096-22.095a22.109 22.109 0 0 1 2.311-9.831zm-2.722-1.261a25.096 25.096 0 0 0-2.588 11.093c0 13.837 11.258 25.095 25.096 25.095 3.488 0 6.846-.703 10.005-2.085a59.813 59.813 0 0 1 3.807 19.642H3.039a59.818 59.818 0 0 1 3.807-19.642 24.773 24.773 0 0 0 10.005 2.085c13.838 0 25.096-11.257 25.096-25.095 0-3.851-.891-7.653-2.588-11.093C46.665 4.761 54.713 3 63.167 3s16.502 1.761 23.809 4.922zM8.87 37.266c.029-.06.055-.122.084-.183a60.562 60.562 0 0 1 27.682-27.9 22.097 22.097 0 0 1 2.311 9.832c0 12.183-9.912 22.095-22.096 22.095-3.098 0-6.078-.626-8.877-1.863.289-.666.583-1.328.896-1.981zm54.297 86.068c-32.673 0-59.327-26.184-60.128-58.668h120.256c-.801 32.484-27.455 58.668-60.128 58.668z" style="" fill="#33363a" data-original="#33363a" class=""></path><circle cx="63.167" cy="68.868" r="16.764" style="" fill="#a7bbc1" data-original="#a7bbc1"></circle><circle cx="63.167" cy="63.167" r="16.764" style="" fill="#ffffff" data-original="#ffffff"></circle><path d="M51.313 75.021c-6.547-6.547-6.547-17.16 0-23.709 6.547-6.546 17.162-6.546 23.707 0" style="" fill="#d8e5ea" data-original="#d8e5ea" class=""></path><path d="M63.167 81.432c-4.878 0-9.465-1.9-12.915-5.35-7.121-7.12-7.121-18.708 0-25.83a18.149 18.149 0 0 1 12.915-5.349 18.14 18.14 0 0 1 12.914 5.349c7.12 7.123 7.12 18.71 0 25.83a18.138 18.138 0 0 1-12.914 5.35zm0-33.529c-4.077 0-7.91 1.587-10.793 4.47-5.951 5.953-5.951 15.637 0 21.588a15.164 15.164 0 0 0 10.793 4.471c4.078 0 7.91-1.588 10.792-4.471 5.951-5.951 5.951-15.635 0-21.588a15.16 15.16 0 0 0-10.792-4.47z" style="" fill="#33363a" data-original="#33363a" class=""></path><path d="M68.87 68.87a8.07 8.07 0 0 1-11.404 0A8.065 8.065 0 0 1 68.87 57.467a8.063 8.063 0 0 1 0 11.403z" style="" fill="#ffffff" data-original="#ffffff"></path><path d="M57.466 57.467A8.064 8.064 0 0 1 68.87 68.87" style="" fill="#d8e5ea" data-original="#d8e5ea" class=""></path><path d="M63.168 72.725a9.535 9.535 0 0 1-6.762-2.794c-3.729-3.73-3.728-9.797 0-13.525a9.495 9.495 0 0 1 6.762-2.802h.001c2.555 0 4.957.996 6.763 2.802 3.728 3.728 3.728 9.794 0 13.524h-.001a9.536 9.536 0 0 1-6.763 2.795zm-.001-16.121a6.516 6.516 0 0 0-4.64 1.923 6.57 6.57 0 0 0 0 9.282 6.575 6.575 0 0 0 9.283 0c2.558-2.561 2.558-6.724 0-9.282a6.532 6.532 0 0 0-4.643-1.923zM70.417 23.405h-14.5a1.5 1.5 0 0 0-1.5 1.5v12.174a1.5 1.5 0 1 0 3 0V26.405h4.25v10.674a1.5 1.5 0 1 0 3 0V26.405h4.25v10.674a1.5 1.5 0 1 0 3 0V24.905a1.5 1.5 0 0 0-1.5-1.5z" style="" fill="#33363a" data-original="#33363a" class=""></path></g></svg>