<svg xmlns="http://www.w3.org/2000/svg" version="1.1" xmlns:xlink="http://www.w3.org/1999/xlink" xmlns:svgjs="http://svgjs.com/svgjs" width="512" height="512" x="0" y="0" viewBox="0 0 127.318 127.318" style="enable-background:new 0 0 512 512" xml:space="preserve" class=""><g><path d="M120.864 67.353c0 22.873-27.14 41.422-57.205 41.422S6.454 90.226 6.454 67.353c0-22.877 27.14-50.289 57.205-50.289s57.205 27.412 57.205 50.289z" style="" fill="#ffddd2" data-original="#ffddd2" class=""></path><path d="M120.864 67.353c0 22.873-27.14 41.422-57.205 41.422S6.454 90.226 6.454 67.353c0-22.877 27.14-38.641 57.205-38.641s57.205 15.764 57.205 38.641z" style="" fill="#f4c4b3" data-original="#f4c4b3" class=""></path><path d="M75.252 80.38c0 1.543-5.191 1.82-11.592 1.82-6.402 0-11.592-.277-11.592-1.82 0-1.541 5.189-5.57 11.592-5.57 6.402 0 11.592 4.029 11.592 5.57z" style="" fill="#ffddd2" data-original="#ffddd2" class=""></path><path d="M120.864 67.353c0 22.873-27.14 41.422-57.205 41.422S6.454 90.226 6.454 67.353c0-22.879 9.692 20.289 57.205 20.289s57.205-43.168 57.205-20.289z" style="" fill="#e8b5a6" data-original="#e8b5a6" class=""></path><path d="M63.659 110.274c-31.821 0-58.705-19.656-58.705-42.922 0-23.313 27.089-51.789 58.705-51.789s58.705 28.477 58.705 51.789c0 23.266-26.883 42.922-58.705 42.922zm0-91.71c-29.478 0-55.705 27.283-55.705 48.789 0 10.442 5.93 20.41 16.697 28.065 10.597 7.535 24.815 11.856 39.008 11.856s28.411-4.321 39.008-11.856c10.768-7.655 16.697-17.623 16.697-28.065 0-21.506-26.227-48.789-55.705-48.789z" style="" fill="#33363a" data-original="#33363a" class=""></path><path d="M38.563 96.251c0-6.367 12.763-11.531 25.096-11.531 12.334 0 25.098 5.164 25.098 11.531 0 6.371-12.764 14.004-25.098 14.004s-25.096-7.633-25.096-14.004z" style="" fill="#ffddd2" data-original="#ffddd2" class=""></path><path d="M38.563 96.251c0-6.367 12.763-11.531 25.096-11.531 12.334 0 25.098 5.164 25.098 11.531 0 6.371-12.764 10.76-25.098 10.76s-25.096-4.389-25.096-10.76z" style="" fill="#f4c4b3" data-original="#f4c4b3" class=""></path><path d="M58.902 92.624c0-.43 2.129-.504 4.756-.504 2.625 0 4.755.074 4.755.504s-2.13 1.551-4.755 1.551c-2.627 0-4.756-1.121-4.756-1.551z" style="" fill="#ffddd2" data-original="#ffddd2" class=""></path><path d="M38.563 96.251c0-6.367 12.763-11.531 25.096-11.531 12.334 0 25.098 5.164 25.098 11.531 0 6.371-5.607-5.648-25.098-5.648-19.49 0-25.096 12.019-25.096 5.648z" style="" fill="#e8b5a6" data-original="#e8b5a6" class=""></path><path d="M63.658 111.755c-12.925 0-26.596-7.97-26.596-15.504a1.5 1.5 0 1 1 3 0c0 5.229 11.89 12.504 23.596 12.504 11.707 0 23.598-7.274 23.598-12.504a1.5 1.5 0 1 1 3 0c0 7.534-13.672 15.504-26.598 15.504z" style="" fill="#33363a" data-original="#33363a" class=""></path><path d="M45.779 74.81a8.905 8.905 0 0 1-8.908 8.906 8.904 8.904 0 0 1-8.906-8.906 8.907 8.907 0 0 1 8.906-8.908 8.907 8.907 0 0 1 8.908 8.908z" style="" fill="#2c9dce" data-original="#2c9dce"></path><circle cx="32.441" cy="71.915" r="3.629" style="" fill="#ffffff" data-original="#ffffff"></circle><path d="M99.354 74.81a8.904 8.904 0 0 1-8.906 8.906 8.905 8.905 0 0 1-8.908-8.906 8.908 8.908 0 1 1 17.814 0z" style="" fill="#2c9dce" data-original="#2c9dce"></path><circle cx="86.017" cy="71.915" r="3.629" style="" fill="#ffffff" data-original="#ffffff"></circle><path d="M36.871 64.401c-.573 0-1.132.059-1.68.148a1.478 1.478 0 0 0-.64-.148 4.52 4.52 0 0 1-4.516-4.514 1.5 1.5 0 1 0-3 0c0 2.772 1.513 5.192 3.754 6.494a10.473 10.473 0 0 0-2.453 2.491c-.12.162-.225.332-.326.508a10.332 10.332 0 0 0-1.545 5.429c0 5.738 4.668 10.406 10.406 10.406 5.739 0 10.408-4.668 10.408-10.406 0-5.739-4.669-10.408-10.408-10.408zm0 17.815c-3.096 0-5.75-1.911-6.855-4.614 1.634.017 4.098-.95 6.855-.95 2.759 0 5.223.967 6.857.95-1.105 2.703-3.76 4.614-6.857 4.614zM96.53 66.382c2.24-1.302 3.754-3.723 3.754-6.494a1.5 1.5 0 1 0-3 0 4.52 4.52 0 0 1-4.516 4.514c-.23 0-.445.056-.64.148a10.34 10.34 0 0 0-1.68-.148c-3.537 0-6.663 1.777-8.544 4.481a5.034 5.034 0 0 0-.312.487 10.33 10.33 0 0 0-1.552 5.441c0 5.738 4.669 10.406 10.408 10.406 5.738 0 10.406-4.668 10.406-10.406 0-3.468-1.711-6.536-4.324-8.429zm-6.083 15.834c-3.097 0-5.752-1.911-6.857-4.614 1.634.017 4.099-.95 6.857-.95s5.222.967 6.856.95c-1.105 2.703-3.76 4.614-6.856 4.614z" style="" fill="#33363a" data-original="#33363a" class=""></path><path d="M5.254 20.661C-.279 34.53.252 50.441 7.315 64.108a59.152 59.152 0 0 1 16.313-20.816 59.216 59.216 0 0 1 23.728-11.691c-11.928-9.719-27.387-13.506-42.102-10.94z" style="" fill="#ffddd2" data-original="#ffddd2" class=""></path><path d="M26.654 49.062c2.993-2.432 3.131-10.27 6.408-12.025-7.648-7.85-17.595-13.074-28.313-15.004C-.221 35.574.481 50.887 7.314 64.109c3.682-7.838 12.165-9.223 19.34-15.047z" style="" fill="#f4c4b3" data-original="#f4c4b3" class=""></path><path d="M7.316 65.608a1.5 1.5 0 0 1-1.334-.812C-1.173 50.95-1.946 34.66 3.861 20.106a1.501 1.501 0 0 1 1.135-.922c15.439-2.696 31.225 1.409 43.307 11.254a1.5 1.5 0 1 1-1.894 2.326c-11.192-9.119-25.75-13.018-40.066-10.763C1.193 35.547 2.02 50.595 8.647 63.42a1.5 1.5 0 0 1-1.331 2.188z" style="" fill="#33363a" data-original="#33363a" class=""></path><path d="M122.065 20.661c5.533 13.869 5.002 29.779-2.061 43.447a59.152 59.152 0 0 0-16.313-20.816 59.22 59.22 0 0 0-23.729-11.691c11.928-9.719 27.387-13.506 42.103-10.94z" style="" fill="#ffddd2" data-original="#ffddd2" class=""></path><path d="M100.664 49.062c-2.993-2.432-3.131-10.27-6.408-12.025 7.648-7.85 17.594-13.074 28.313-15.004 4.97 13.541 4.268 28.854-2.565 42.076-3.682-7.838-12.165-9.223-19.34-15.047z" style="" fill="#f4c4b3" data-original="#f4c4b3" class=""></path><path d="M120.002 65.608a1.5 1.5 0 0 1-1.331-2.188c6.627-12.825 7.454-27.873 2.305-41.419-14.317-2.255-28.875 1.643-40.066 10.763a1.5 1.5 0 0 1-1.895-2.326c12.083-9.845 27.868-13.947 43.307-11.254.513.089.942.438 1.135.922 5.807 14.555 5.034 30.845-2.121 44.691-.266.516-.79.811-1.334.811z" style="" fill="#33363a" data-original="#33363a" class=""></path><circle cx="86.017" cy="71.915" r="2.129" style="" fill="#ffffff" data-original="#ffffff"></circle><circle cx="32.441" cy="71.915" r="2.129" style="" fill="#ffffff" data-original="#ffffff"></circle></g></svg>