<svg xmlns="http://www.w3.org/2000/svg" version="1.1" xmlns:xlink="http://www.w3.org/1999/xlink" xmlns:svgjs="http://svgjs.com/svgjs" width="512" height="512" x="0" y="0" viewBox="0 0 126.482 126.482" style="enable-background:new 0 0 512 512" xml:space="preserve" class=""><g><path d="m96.118 124.982 27.973-103.688-50.578 30.015v.002c.049 7.236-3.611 14.318-10.273 18.271s-14.629 3.771-20.957.26l-26.658 15.82c15.752 17.014 41.816 21.377 62.545 9.076.193-.115.379-.24.57-.355l.199 1.646 17.179 28.953z" style="" fill="#ffffff" data-original="#ffffff" class=""></path><path d="M63.24 69.582c-6.662 3.953-14.629 3.771-20.957.26L19.398 83.424c15.467 9.73 35.729 10.691 52.496.74 16.77-9.953 25.635-28.193 24.502-46.432L73.513 51.311c.049 7.236-3.611 14.318-10.273 18.271z" style="" fill="#d8e5ea" data-original="#d8e5ea" class=""></path><path d="M31.634 51.902c-.049-7.238 3.609-14.318 10.272-18.271s14.633-3.773 20.959-.262l26.658-15.822C73.773.535 47.706-3.828 26.98 8.475 6.251 20.775-2.409 45.742 4.976 67.719l26.658-15.817z" style="" fill="#ffffff" data-original="#ffffff" class=""></path><path d="M41.906 33.631c6.662-3.953 14.633-3.773 20.959-.262L85.75 19.787c-15.469-9.736-35.728-10.693-52.496-.742-16.77 9.953-25.638 28.193-24.503 46.434l22.883-13.576c-.049-7.239 3.609-14.319 10.272-18.272z" style="" fill="#d8e5ea" data-original="#d8e5ea" class=""></path><path d="M4.976 69.219a1.498 1.498 0 0 1-1.421-1.023c-7.722-22.979 1.809-48.638 22.66-61.012C47.066-5.19 74.154-1.263 90.623 16.527a1.502 1.502 0 0 1-.335 2.309L63.63 34.659a1.499 1.499 0 0 1-1.493.021c-6.074-3.372-13.533-3.28-19.466.24-5.93 3.519-9.584 10.021-9.537 16.972a1.5 1.5 0 0 1-.734 1.3L5.741 69.009c-.234.139-.499.21-.765.21zM52.53 2.996c-8.527 0-17.104 2.21-24.784 6.769C8.638 21.104-.379 44.283 5.838 65.463l24.307-14.421c.245-7.682 4.401-14.788 10.995-18.701 6.599-3.914 14.827-4.157 21.683-.691L87.13 17.223C77.793 7.89 65.217 2.996 52.53 2.996z" style="" fill="#33363a" data-original="#33363a" class=""></path><path d="M61.997 46.012c3.092 5.207 1.377 11.93-3.832 15.018-5.203 3.09-11.928 1.377-15.019-3.832-3.088-5.203-1.371-11.932 3.834-15.019 5.205-3.091 11.929-1.372 15.017 3.833z" style="" fill="#ffffff" data-original="#ffffff" class=""></path><path d="M43.146 57.197c-3.088-5.203-1.371-11.932 3.834-15.019 5.205-3.09 11.93-1.371 15.018 3.834" style="" fill="#d8e5ea" data-original="#d8e5ea" class=""></path><path d="M52.593 64.07c-1.033 0-2.072-.13-3.1-.392a12.382 12.382 0 0 1-7.638-5.716 12.373 12.373 0 0 1-1.356-9.439 12.38 12.38 0 0 1 5.715-7.636 12.36 12.36 0 0 1 9.439-1.356 12.377 12.377 0 0 1 7.634 5.715 12.373 12.373 0 0 1 1.36 9.439 12.37 12.37 0 0 1-5.718 7.634 12.357 12.357 0 0 1-6.336 1.751zm-.038-21.93a9.39 9.39 0 0 0-4.81 1.328 9.397 9.397 0 0 0-4.339 5.798 9.396 9.396 0 0 0 1.029 7.166 9.395 9.395 0 0 0 5.799 4.34 9.376 9.376 0 0 0 7.165-1.032 9.389 9.389 0 0 0 4.341-5.795 9.393 9.393 0 0 0-1.033-7.167 9.396 9.396 0 0 0-5.796-4.34 9.487 9.487 0 0 0-2.356-.298zM21.278 71.678a1.5 1.5 0 0 1-.767-2.79l13.318-7.904a1.5 1.5 0 0 1 1.532 2.58l-13.318 7.904c-.241.142-.505.21-.765.21zM13.604 76.225c-.391 0-.78-.16-1.061-.44a1.483 1.483 0 0 1-.439-1.06c0-.39.16-.78.439-1.06.561-.551 1.561-.551 2.12 0a1.499 1.499 0 0 1-1.059 2.56zM6.613 80.375c-.39 0-.78-.16-1.061-.44a1.52 1.52 0 0 1-.439-1.06c0-.391.16-.78.439-1.061.57-.56 1.561-.56 2.12 0 .28.28.44.67.44 1.061 0 .39-.16.779-.43 1.06-.288.28-.668.44-1.069.44zM70.551 42.436a1.5 1.5 0 0 1-.767-2.79l13.318-7.9a1.5 1.5 0 0 1 1.532 2.58l-13.318 7.9c-.241.142-.504.21-.765.21zM91.543 29.984c-.399 0-.79-.16-1.06-.45-.28-.27-.44-.659-.44-1.05 0-.399.16-.79.44-1.069.55-.551 1.56-.561 2.12 0 .279.279.439.67.439 1.069 0 .391-.16.771-.439 1.05-.28.29-.669.45-1.06.45zM98.53 25.834a1.5 1.5 0 0 1-.767-2.79l20.238-12.012a1.501 1.501 0 0 1 1.532 2.58L99.294 25.624c-.24.143-.504.21-.764.21z" style="" fill="#33363a" data-original="#33363a" class=""></path><path d="M96.118 126.482a1.5 1.5 0 0 1-1.29-.734l-17.18-28.953a.386.386 0 0 0-.013-.021c-20.667 11.46-46.983 7.329-63.112-10.092a1.502 1.502 0 0 1 .335-2.309l26.658-15.82a1.501 1.501 0 0 1 1.493-.021c6.076 3.371 13.533 3.281 19.464-.238s9.587-10.024 9.54-16.974a1.502 1.502 0 0 1 .734-1.3l50.578-30.016a1.5 1.5 0 0 1 2.214 1.681L97.567 125.373a1.5 1.5 0 0 1-1.449 1.109zM80.39 95.535l15.206 25.627 26.085-96.692-46.679 27.699c-.245 7.682-4.401 14.789-10.997 18.703-6.593 3.913-14.821 4.157-21.681.689L18.018 85.986c15.612 15.608 40.279 18.8 59.386 7.462l.563-.351a1.502 1.502 0 0 1 2.263 1.104l.16 1.334z" style="" fill="#33363a" data-original="#33363a" class=""></path><path d="M93.79 88.912a1.5 1.5 0 0 1-1.5-1.5V73.139a1.5 1.5 0 0 1 3 0v14.273a1.5 1.5 0 0 1-1.5 1.5z" style="" fill="#33363a" data-original="#33363a" class=""></path><path d="M100.925 81.775H86.654a1.5 1.5 0 0 1 0-3h14.271a1.5 1.5 0 0 1 0 3z" style="" fill="#33363a" data-original="#33363a" class=""></path></g></svg>