<svg xmlns="http://www.w3.org/2000/svg" version="1.1" xmlns:xlink="http://www.w3.org/1999/xlink" xmlns:svgjs="http://svgjs.com/svgjs" width="512" height="512" x="0" y="0" viewBox="0 0 128.115 128.115" style="enable-background:new 0 0 512 512" xml:space="preserve" class=""><g><path d="M26.109 40.17c0 28.913 14.693 55.994 37.945 74.074 23.271-18.08 37.951-45.161 37.951-74.074 0-7.21-.91-12.111-2.654-15.676C95.145 11.258 80.967 1.5 64.055 1.5c-16.889 0-31.08 9.758-35.283 22.994-1.747 3.565-2.663 8.466-2.663 15.676z" style="" fill="#ffffff" data-original="#ffffff"></path><path d="M64.055 1.5c-16.889 0-31.08 9.758-35.283 22.994-1.746 3.564-2.662 8.466-2.662 15.676 0 28.913 14.693 55.994 37.945 74.074" style="" fill="#ced9dd" data-original="#ced9dd" class=""></path><path d="M64.055 115.744c-.325 0-.65-.105-.921-.316C38.651 96.391 24.609 68.96 24.609 40.17c0-7.163.879-12.326 2.766-16.235C31.912 9.837 46.976 0 64.055 0c17.083 0 32.153 9.836 36.693 23.935 1.881 3.902 2.758 9.066 2.758 16.235 0 28.804-14.044 56.234-38.531 75.259a1.5 1.5 0 0 1-.92.315zM64.055 3c-15.829 0-29.75 9.025-33.854 21.948-.022.07-.05.139-.083.206-1.712 3.495-2.509 8.266-2.509 15.016 0 27.496 13.268 53.735 36.446 72.167 23.181-18.419 36.451-44.658 36.451-72.167 0-6.757-.795-11.528-2.501-15.017a1.516 1.516 0 0 1-.083-.205C93.814 12.025 79.888 3 64.055 3z" style="" fill="#33363a" data-original="#33363a" class=""></path><circle cx="64.058" cy="37.686" r="22.796" style="" fill="#ff8f8f" data-original="#ff8f8f"></circle><path d="M86.854 37.686c0 9.645-10.205 17.463-22.795 17.463-12.59 0-22.797-7.818-22.797-17.463 0-9.641 10.207-17.459 22.797-17.459 12.589 0 22.795 7.818 22.795 17.459z" style="" fill="#ff1a1a" data-original="#ff1a1a"></path><path d="M41.262 37.686c0 12.592 10.207 22.799 22.797 22.799s22.795-10.207 22.795-22.799H41.262z" style="" fill="#ffffff" data-original="#ffffff"></path><path d="M64.059 55.148c12.59 0 22.795-7.818 22.795-17.463H41.262c0 9.645 10.207 17.463 22.797 17.463z" style="" fill="#d8e5ea" data-original="#d8e5ea"></path><path d="M88.354 37.686c0-13.396-10.898-24.295-24.295-24.295-13.397 0-24.297 10.898-24.297 24.295 0 12.894 10.095 23.469 22.796 24.248 0 .009-.003.017-.003.027v18.054a1.5 1.5 0 1 0 3 0V61.96c0-.009-.002-.017-.003-.026 12.703-.775 22.802-11.352 22.802-24.248zM64.059 16.391c11.236 0 20.444 8.753 21.219 19.795h-42.44c.775-11.043 9.984-19.795 21.221-19.795zm0 42.593c-11.237 0-20.446-8.755-21.221-19.799h42.44c-.776 11.045-9.983 19.799-21.219 19.799zM73.084 128.115H55.031a1.5 1.5 0 1 1 0-3h18.053a1.5 1.5 0 1 1 0 3zM64.055 87.669a1.5 1.5 0 0 1-1.5-1.5v-.266a1.5 1.5 0 1 1 3 0v.266a1.5 1.5 0 0 1-1.5 1.5zM64.055 93.813a1.5 1.5 0 0 1-1.5-1.5v-.266a1.5 1.5 0 1 1 3 0v.266a1.5 1.5 0 0 1-1.5 1.5zM64.055 99.957a1.5 1.5 0 0 1-1.5-1.5v-.266a1.5 1.5 0 1 1 3 0v.266a1.5 1.5 0 0 1-1.5 1.5zM64.055 106.103a1.5 1.5 0 0 1-1.5-1.5v-.266a1.5 1.5 0 1 1 3 0v.266a1.5 1.5 0 0 1-1.5 1.5z" style="" fill="#33363a" data-original="#33363a" class=""></path><circle cx="64.058" cy="40.298" r="7.537" style="" fill="#a7bbc1" data-original="#a7bbc1"></circle><circle cx="64.058" cy="37.736" r="7.537" style="" fill="#ffffff" data-original="#ffffff"></circle><path d="M58.729 43.066a7.539 7.539 0 0 1 0-10.66 7.535 7.535 0 0 1 10.658 0" style="" fill="#d8e5ea" data-original="#d8e5ea"></path><path d="M64.058 46.768a9.01 9.01 0 0 1-6.39-2.641c-3.523-3.525-3.523-9.259 0-12.782 1.707-1.708 3.976-2.648 6.39-2.648s4.683.94 6.39 2.647a8.976 8.976 0 0 1 2.648 6.39 8.98 8.98 0 0 1-2.648 6.392 9.008 9.008 0 0 1-6.39 2.642zm0-15.07a5.994 5.994 0 0 0-4.268 1.769 6.045 6.045 0 0 0 0 8.539 6.046 6.046 0 0 0 8.537 0 6 6 0 0 0 1.77-4.27 5.995 5.995 0 0 0-1.77-4.269 5.998 5.998 0 0 0-4.269-1.769z" style="" fill="#33363a" data-original="#33363a" class=""></path></g></svg>