<svg xmlns="http://www.w3.org/2000/svg" version="1.1" xmlns:xlink="http://www.w3.org/1999/xlink" xmlns:svgjs="http://svgjs.com/svgjs" width="512" height="512" x="0" y="0" viewBox="0 0 126.334 126.334" style="enable-background:new 0 0 512 512" xml:space="preserve" class=""><g><circle cx="63.167" cy="63.166" r="61.667" style="" fill="#ff1a1a" data-original="#ff1a1a"></circle><ellipse cx="63.167" cy="63.166" rx="61.667" ry="47.232" style="" fill="#d60909" data-original="#d60909" class=""></ellipse><path d="M1.5 63.166c0 34.061 27.609 61.668 61.667 61.668s61.667-27.607 61.667-61.668H1.5z" style="" fill="#ffffff" data-original="#ffffff"></path><path d="M63.167 110.398c34.058 0 61.667-21.148 61.667-47.232H1.5c0 26.084 27.609 47.232 61.667 47.232z" style="" fill="#d8e5ea" data-original="#d8e5ea" class=""></path><path d="M63.167 0C28.336 0 0 28.336 0 63.166c0 34.831 28.336 63.168 63.167 63.168s63.167-28.337 63.167-63.168C126.334 28.336 97.998 0 63.167 0zm0 3c32.673 0 59.328 26.183 60.129 58.666H3.038C3.839 29.183 30.494 3 63.167 3zm0 120.334c-32.673 0-59.328-26.184-60.129-58.668h120.258c-.801 32.484-27.456 58.668-60.129 58.668z" style="" fill="#33363a" data-original="#33363a"></path><circle cx="63.167" cy="68.868" r="16.764" style="" fill="#a7bbc1" data-original="#a7bbc1"></circle><circle cx="63.167" cy="63.167" r="16.764" style="" fill="#ffffff" data-original="#ffffff"></circle><path d="M51.313 75.021c-6.547-6.547-6.546-17.16 0-23.709 6.547-6.546 17.161-6.546 23.707 0" style="" fill="#d8e5ea" data-original="#d8e5ea" class=""></path><path d="M63.167 81.432c-4.878 0-9.465-1.9-12.915-5.35-7.12-7.12-7.12-18.707 0-25.83 7.122-7.12 18.708-7.12 25.829 0a18.15 18.15 0 0 1 5.351 12.916c0 4.878-1.9 9.465-5.351 12.915a18.143 18.143 0 0 1-12.914 5.349zm0-33.522a15.214 15.214 0 0 0-10.793 4.463c-5.95 5.953-5.95 15.637 0 21.588a15.164 15.164 0 0 0 10.793 4.471 15.16 15.16 0 0 0 10.792-4.471 15.165 15.165 0 0 0 4.472-10.793c0-4.077-1.588-7.91-4.472-10.794a15.21 15.21 0 0 0-10.792-4.464z" style="" fill="#33363a" data-original="#33363a"></path><path d="M68.871 68.87c-3.149 3.146-8.257 3.146-11.404 0a8.064 8.064 0 1 1 11.404 0z" style="" fill="#ffffff" data-original="#ffffff"></path><path d="M57.467 57.467A8.063 8.063 0 0 1 68.871 68.87" style="" fill="#d8e5ea" data-original="#d8e5ea" class=""></path><path d="M63.168 72.725a9.534 9.534 0 0 1-6.762-2.794c-3.729-3.73-3.729-9.797 0-13.525a9.494 9.494 0 0 1 6.761-2.802c2.555 0 4.957.996 6.763 2.802 3.728 3.727 3.728 9.794.001 13.524l-.001.001a9.535 9.535 0 0 1-6.762 2.794zm-.001-16.121a6.516 6.516 0 0 0-4.64 1.923 6.57 6.57 0 0 0 0 9.282c2.558 2.557 6.723 2.557 9.283 0a6.573 6.573 0 0 0-.001-9.282 6.528 6.528 0 0 0-4.642-1.923z" style="" fill="#33363a" data-original="#33363a"></path></g></svg>