<svg xmlns="http://www.w3.org/2000/svg" version="1.1" xmlns:xlink="http://www.w3.org/1999/xlink" xmlns:svgjs="http://svgjs.com/svgjs" width="512" height="512" x="0" y="0" viewBox="0 0 127.441 127.441" style="enable-background:new 0 0 512 512" xml:space="preserve" class=""><g><path d="M89.513 39.983c0-6.322-2.291-12.118-6.082-16.609V12.283a4.18 4.18 0 0 0-1.177-2.908C77.344 4.297 70.763 1.5 63.723 1.5c-14.22 0-25.789 11.569-25.789 25.788 0 .799.045 1.623.137 2.49-.093.346-.142.71-.142 1.078v78.424c0 1.495.798 2.877 2.093 3.625l21.608 12.477a4.19 4.19 0 0 0 4.186 0l15.522-8.963a4.188 4.188 0 0 0 2.093-3.625V56.593c3.791-4.491 6.082-10.286 6.082-16.61z" style="" fill="#ffffff" data-original="#ffffff"></path><path d="M89.152 44.196a25.693 25.693 0 0 0-5.722-12.397V20.71a4.18 4.18 0 0 0-1.177-2.91c-4.91-5.078-11.491-7.875-18.531-7.875-14.22 0-25.789 11.57-25.789 25.789 0 .799.045 1.623.137 2.488a4.19 4.19 0 0 0-.142 1.08v69.998c0 1.495.798 2.877 2.093 3.625l21.608 12.477a4.19 4.19 0 0 0 4.186 0l15.522-8.963a4.188 4.188 0 0 0 2.093-3.625V56.593a25.701 25.701 0 0 0 5.722-12.397z" style="" fill="#d3eff4" data-original="#d3eff4"></path><path d="M63.723 127.441a5.704 5.704 0 0 1-2.842-.76l-21.609-12.478a5.701 5.701 0 0 1-2.843-4.924V30.856c0-.397.042-.792.124-1.179-.08-.826-.119-1.61-.119-2.389C36.434 12.241 48.676 0 63.723 0c7.45 0 14.414 2.959 19.609 8.333a5.651 5.651 0 0 1 1.599 3.951v10.551c3.926 4.848 6.082 10.916 6.082 17.149s-2.156 12.301-6.082 17.149v55.662a5.702 5.702 0 0 1-2.843 4.924l-15.522 8.963a5.712 5.712 0 0 1-2.843.759zM63.723 3C50.33 3 39.434 13.896 39.434 27.288c0 .753.042 1.516.128 2.333.02.183.005.369-.042.546a2.623 2.623 0 0 0-.091.689v78.424c0 .956.515 1.848 1.343 2.326l21.608 12.477c.814.469 1.87.47 2.687-.001l15.521-8.962a2.696 2.696 0 0 0 1.343-2.326V56.593a1.5 1.5 0 0 1 .354-.968c3.694-4.376 5.729-9.931 5.729-15.642s-2.034-11.266-5.729-15.642a1.5 1.5 0 0 1-.354-.968v-11.09c0-.7-.268-1.362-.754-1.865C76.551 5.634 70.353 3 63.723 3z" style="" fill="#33363a" data-original="#33363a"></path><circle cx="63.721" cy="39.21" r="14.387" style="" fill="#0086ff" data-original="#0086ff"></circle><path d="M49.334 39.21c0 7.945 6.441 14.387 14.387 14.387s14.387-6.441 14.387-14.387H49.334z" style="" fill="#ffffff" data-original="#ffffff"></path><path d="M63.721 50.23c7.945 0 14.387-4.934 14.387-11.02H49.334c0 6.086 6.441 11.02 14.387 11.02z" style="" fill="#d8e5ea" data-original="#d8e5ea"></path><path d="M79.607 39.21c0-8.257-6.334-15.057-14.398-15.811.003-.037.011-.073.011-.111v-7.063a1.5 1.5 0 1 0-3 0v7.063c0 .038.008.073.011.111-8.064.754-14.398 7.554-14.398 15.811s6.334 15.058 14.398 15.811c-.003.037-.011.073-.011.111v7.063a1.5 1.5 0 1 0 3 0v-7.063c0-.038-.008-.073-.011-.111 8.064-.754 14.398-7.554 14.398-15.811zM63.721 26.323c6.597 0 12.045 4.986 12.792 11.387H50.929c.746-6.401 6.194-11.387 12.792-11.387zm0 25.774c-6.597 0-12.045-4.986-12.792-11.387h25.584c-.747 6.401-6.195 11.387-12.792 11.387zM48.744 87.882c-2.087 0-3.785-1.698-3.785-3.785s1.698-3.785 3.785-3.785 3.785 1.698 3.785 3.785-1.698 3.785-3.785 3.785zm0-4.57a.786.786 0 1 0 .001 1.571.786.786 0 0 0-.001-1.571zM51.029 96.915h-4.57a1.5 1.5 0 1 1 0-3h4.57a1.5 1.5 0 1 1 0 3zM51.029 103.717h-4.57a1.5 1.5 0 1 1 0-3h4.57a1.5 1.5 0 1 1 0 3z" style="" fill="#33363a" data-original="#33363a"></path><circle cx="63.721" cy="40.857" r="4.757" style="" fill="#a7bbc1" data-original="#a7bbc1"></circle><circle cx="63.721" cy="39.24" r="4.757" style="" fill="#ffffff" data-original="#ffffff"></circle><path d="M60.357 42.605a4.757 4.757 0 1 1 6.727-6.729" style="" fill="#d8e5ea" data-original="#d8e5ea"></path><path d="M63.721 45.494a6.237 6.237 0 0 1-4.424-1.828 6.265 6.265 0 0 1 0-8.85 6.264 6.264 0 0 1 8.848 0 6.265 6.265 0 0 1 0 8.85 6.245 6.245 0 0 1-4.424 1.828zm0-9.51c-.834 0-1.668.317-2.303.952a3.26 3.26 0 0 0 0 4.607 3.261 3.261 0 0 0 4.605 0 3.26 3.26 0 0 0 0-4.607 3.246 3.246 0 0 0-2.302-.952z" style="" fill="#33363a" data-original="#33363a"></path></g></svg>