<svg xmlns="http://www.w3.org/2000/svg" version="1.1" xmlns:xlink="http://www.w3.org/1999/xlink" xmlns:svgjs="http://svgjs.com/svgjs" width="512" height="512" x="0" y="0" viewBox="0 0 127.391 127.391" style="enable-background:new 0 0 512 512" xml:space="preserve" class=""><g><path d="m122.356 52.629 3.535-15.627-19.47 9.119 7.743 10.102-26.729 11.732-15.762-12.371 7.367-12.521-15.344-26.082-15.345 26.082 7.367 12.521-15.762 12.369-26.728-11.73 7.742-10.102L1.5 37.002l3.535 15.627-.015-.008 3.489 15.421 8.145 42.368h94.081l8.14-42.336 3.496-15.453z" style="" fill="#fff80d" data-original="#fff80d"></path><path d="m124.08 45.005-13.623 6.382 3.707 4.836v7.156L87.435 75.111 71.673 62.74v-7.156l5.262-8.943-13.239-22.504-13.24 22.504 5.262 8.943v7.156L39.956 75.11 13.228 63.379v-7.156l3.706-4.836-13.622-6.382 1.723 7.624-.015-.008 3.489 15.421 8.145 42.368h94.081l8.14-42.336 3.496-15.453-.015.008z" style="" fill="#ffd00b" data-original="#ffd00b" class=""></path><circle cx="63.695" cy="86.587" r="15.735" style="" fill="#ffaf10" data-original="#ffaf10"></circle><path d="M79.431 86.587c0 6.658-7.046 12.054-15.736 12.054-8.689 0-15.734-5.396-15.734-12.054 0-6.651 7.045-12.054 15.734-12.054 8.69 0 15.736 5.403 15.736 12.054z" style="" fill="#ff860d" data-original="#ff860d"></path><path d="M47.96 86.587c0 8.691 7.045 15.737 15.734 15.737 8.69 0 15.736-7.046 15.736-15.737H47.96z" style="" fill="#fff9de" data-original="#fff9de"></path><path d="M63.694 98.641c8.69 0 15.736-5.396 15.736-12.054H47.96c0 6.658 7.045 12.054 15.734 12.054z" style="" fill="#fff3c2" data-original="#fff3c2"></path><path d="M126.831 35.834a1.502 1.502 0 0 0-1.577-.19l-19.469 9.119a1.498 1.498 0 0 0-.554 2.271l6.58 8.584-24.157 10.603-14.023-11.007 6.702-11.391a1.5 1.5 0 0 0 0-1.521L64.989 16.22a1.501 1.501 0 0 0-2.586 0L47.058 42.302a1.5 1.5 0 0 0 0 1.521l6.702 11.391-14.024 11.005-24.155-10.601 6.579-8.584a1.498 1.498 0 0 0-.554-2.271L2.137 35.644a1.498 1.498 0 0 0-2.099 1.69l3.488 15.42c.006.066.017.133.031.199l3.479 15.373 8.146 42.368a1.5 1.5 0 0 0 1.473 1.217h94.081a1.5 1.5 0 0 0 1.473-1.217l8.13-42.288 3.496-15.453c.015-.066.025-.133.031-.199l3.488-15.42a1.5 1.5 0 0 0-.523-1.5zM77.85 88.087c-.752 7.148-6.813 12.737-14.156 12.737-7.342 0-13.402-5.589-14.154-12.737h28.31zm-28.309-3c.752-7.147 6.812-12.735 14.154-12.735 7.343 0 13.403 5.589 14.156 12.735h-28.31zm71.352-32.789a1.52 1.52 0 0 0-.031.197l-3.459 15.296-7.906 41.119H65.195v-5.162c8.802-.764 15.735-8.163 15.735-17.161 0-9.504-7.732-17.235-17.236-17.235-9.503 0-17.234 7.731-17.234 17.235 0 8.999 6.933 16.398 15.735 17.161v5.162H17.894L9.972 67.711 6.529 52.497a1.712 1.712 0 0 0-.031-.199L3.64 39.66l15.005 7.028-6.607 8.622a1.502 1.502 0 0 0 .588 2.286l26.729 11.731a1.502 1.502 0 0 0 1.528-.194l15.762-12.369a1.5 1.5 0 0 0 .367-1.941l-6.92-11.761 13.605-23.124L77.3 43.063l-6.92 11.761a1.5 1.5 0 0 0 .367 1.941l15.762 12.371a1.5 1.5 0 0 0 1.528.193l26.729-11.732a1.5 1.5 0 0 0 .588-2.286l-6.608-8.622 15.005-7.028-2.858 12.637z" style="" fill="#33363a" data-original="#33363a" class=""></path><path d="M43.762 103.824h-2.356a1.5 1.5 0 0 1 0-3h2.356a1.5 1.5 0 0 1 0 3zM36.488 103.824h-2.357a1.5 1.5 0 0 1 0-3h2.357a1.5 1.5 0 0 1 0 3zM29.214 103.824H15.731a1.5 1.5 0 0 1 0-3h13.483a1.5 1.5 0 0 1 0 3zM48.155 103.825c-.391 0-.78-.16-1.061-.44a1.518 1.518 0 0 1-.439-1.06c0-.4.16-.78.439-1.061.561-.56 1.561-.56 2.12 0 .28.28.44.671.44 1.061s-.16.78-.44 1.06c-.278.28-.659.44-1.059.44zM85.986 103.824H83.63a1.5 1.5 0 0 1 0-3h2.356a1.5 1.5 0 0 1 0 3zM93.26 103.824h-2.357a1.5 1.5 0 0 1 0-3h2.357a1.5 1.5 0 0 1 0 3zM111.66 103.824H98.177a1.5 1.5 0 0 1 0-3h13.483a1.5 1.5 0 0 1 0 3zM79.236 103.825c-.391 0-.78-.16-1.061-.44a1.518 1.518 0 0 1-.439-1.06c0-.4.16-.78.439-1.061.561-.56 1.561-.56 2.12 0 .28.28.44.671.44 1.061s-.16.78-.44 1.06-.67.44-1.059.44z" style="" fill="#33363a" data-original="#33363a" class=""></path><circle cx="63.695" cy="88.391" r="5.202" style="" fill="#a7bbc1" data-original="#a7bbc1"></circle><circle cx="63.695" cy="86.621" r="5.202" style="" fill="#ffffff" data-original="#ffffff"></circle><path d="M60.016 90.299a5.202 5.202 0 1 1 7.358-7.356" style="" fill="#d8e5ea" data-original="#d8e5ea"></path><path d="M63.695 93.324a6.655 6.655 0 0 1-4.74-1.965c-1.266-1.265-1.963-2.947-1.963-4.738s.697-3.475 1.963-4.739c2.613-2.613 6.866-2.612 9.479-.001a6.656 6.656 0 0 1 1.964 4.741 6.648 6.648 0 0 1-1.965 4.738 6.651 6.651 0 0 1-4.738 1.964zm0-10.403c-.948 0-1.897.36-2.619 1.082-.699.699-1.084 1.629-1.084 2.618s.385 1.919 1.084 2.616c1.4 1.402 3.84 1.401 5.236.001.7-.699 1.086-1.628 1.086-2.617s-.385-1.919-1.085-2.617v-.001a3.686 3.686 0 0 0-2.618-1.082z" style="" fill="#33363a" data-original="#33363a" class=""></path></g></svg>