<svg xmlns="http://www.w3.org/2000/svg" version="1.1" xmlns:xlink="http://www.w3.org/1999/xlink" xmlns:svgjs="http://svgjs.com/svgjs" width="512" height="512" x="0" y="0" viewBox="0 0 127.194 127.194" style="enable-background:new 0 0 512 512" xml:space="preserve" class=""><g><path d="M125.29 48.948a8.367 8.367 0 0 0-6.784-5.718l-32.733-4.768-14.641-29.67a8.404 8.404 0 0 0-15.069 0l-14.64 29.671L8.687 43.23a8.372 8.372 0 0 0-6.785 5.718 8.402 8.402 0 0 0 2.128 8.609l23.692 23.081-5.599 32.613a8.403 8.403 0 0 0 3.345 8.221 8.413 8.413 0 0 0 8.854.629l29.276-15.383 29.276 15.383a8.328 8.328 0 0 0 3.909.971 8.396 8.396 0 0 0 4.943-1.6 8.407 8.407 0 0 0 3.343-8.221L99.47 80.638l23.691-23.081a8.392 8.392 0 0 0 2.129-8.609z" style="" fill="#ffaa00" data-original="#ffaa00"></path><path d="M63.597 4.113a8.41 8.41 0 0 0-7.534 4.679l-14.64 29.671L8.687 43.23a8.372 8.372 0 0 0-6.785 5.718 8.402 8.402 0 0 0 2.128 8.609l23.692 23.081-5.599 32.613a8.403 8.403 0 0 0 3.345 8.221 8.413 8.413 0 0 0 8.854.629l29.275-15.383V4.113z" style="" fill="#ffd00b" data-original="#ffd00b"></path><circle cx="63.597" cy="68.766" r="21.931" style="" fill="#ff8f8f" data-original="#ff8f8f"></circle><path d="M85.528 68.766c0 9.277-9.819 16.8-21.931 16.8s-21.931-7.522-21.931-16.8c0-9.275 9.818-16.797 21.931-16.797 12.111 0 21.931 7.522 21.931 16.797z" style="" fill="#ff1a1a" data-original="#ff1a1a"></path><path d="M41.666 68.766c0 12.113 9.818 21.932 21.931 21.932 12.111 0 21.931-9.818 21.931-21.932H41.666z" style="" fill="#ffffff" data-original="#ffffff"></path><path d="M63.597 85.566c12.111 0 21.931-7.522 21.931-16.8H41.666c0 9.278 9.819 16.8 21.931 16.8z" style="" fill="#d8e5ea" data-original="#d8e5ea"></path><path d="M126.717 48.486c-1.175-3.626-4.241-6.209-7.995-6.74l-31.954-4.654L72.477 8.129c-1.652-3.351-5.137-5.516-8.879-5.516-3.741 0-7.227 2.165-8.88 5.515L40.427 37.092l-31.95 4.653c-3.757.532-6.823 3.114-8.002 6.742-1.151 3.564-.166 7.547 2.508 10.145l23.127 22.53-5.465 31.835c-.643 3.74.867 7.452 3.947 9.693a9.94 9.94 0 0 0 5.813 1.891 9.85 9.85 0 0 0 4.615-1.152l28.579-15.016 28.573 15.014a9.87 9.87 0 0 0 4.612 1.146 9.847 9.847 0 0 0 5.826-1.887 9.851 9.851 0 0 0 3.938-9.688l-5.465-31.835 23.125-22.529c2.679-2.604 3.664-6.587 2.509-10.148zm-42.765 21.78c-.773 10.566-9.595 18.932-20.355 18.932s-19.582-8.366-20.355-18.932h40.71zm-40.71-3c.773-10.565 9.595-18.93 20.355-18.93s19.581 8.365 20.355 18.93h-40.71zm78.874-10.783L98.424 79.564a1.5 1.5 0 0 0-.432 1.328l5.599 32.613a6.866 6.866 0 0 1-2.746 6.753c-2.079 1.51-4.985 1.729-7.273.515l-28.475-14.962V92.285c0-.048-.01-.093-.014-.139 12.23-.77 21.945-10.959 21.945-23.38 0-12.919-10.511-23.43-23.431-23.43s-23.431 10.511-23.431 23.43c0 12.421 9.715 22.61 21.945 23.38-.004.046-.014.091-.014.139v13.528L33.62 120.776c-2.328 1.232-5.116 1.032-7.27-.516a6.865 6.865 0 0 1-2.749-6.754L29.2 80.893a1.5 1.5 0 0 0-.432-1.328L5.075 56.482c-1.864-1.811-2.549-4.586-1.747-7.07.822-2.527 2.956-4.327 5.575-4.697l32.736-4.768a1.5 1.5 0 0 0 1.129-.821l14.64-29.67a6.948 6.948 0 0 1 6.19-3.843 6.944 6.944 0 0 1 6.189 3.842l14.641 29.671a1.5 1.5 0 0 0 1.129.821l32.74 4.769c2.615.37 4.749 2.169 5.567 4.695a6.941 6.941 0 0 1-1.748 7.072z" style="" fill="#33363a" data-original="#33363a"></path><circle cx="63.597" cy="71.279" r="7.252" style="" fill="#a7bbc1" data-original="#a7bbc1"></circle><circle cx="63.597" cy="68.814" r="7.252" style="" fill="#ffffff" data-original="#ffffff"></circle><path d="M58.469 73.942a7.251 7.251 0 1 1 10.255-10.256" style="" fill="#d8e5ea" data-original="#d8e5ea"></path><path d="M63.597 77.561a8.727 8.727 0 0 1-6.188-2.558c-3.412-3.413-3.412-8.965-.001-12.377a8.695 8.695 0 0 1 6.189-2.563c2.338 0 4.535.911 6.188 2.563 3.412 3.412 3.412 8.965 0 12.377a8.727 8.727 0 0 1-6.188 2.558zm0-14.499a5.71 5.71 0 0 0-4.067 1.685 5.76 5.76 0 0 0 0 8.135 5.758 5.758 0 0 0 8.133 0 5.757 5.757 0 0 0 0-8.134 5.706 5.706 0 0 0-4.066-1.686z" style="" fill="#33363a" data-original="#33363a"></path></g></svg>