<svg xmlns="http://www.w3.org/2000/svg" version="1.1" xmlns:xlink="http://www.w3.org/1999/xlink" xmlns:svgjs="http://svgjs.com/svgjs" width="512" height="512" x="0" y="0" viewBox="0 0 127.346 127.346" style="enable-background:new 0 0 512 512" xml:space="preserve" class=""><g><path d="M104.454 38.89a6.996 6.996 0 0 1-5.934-3.276C90.41 22.706 77.383 15 63.673 15s-26.737 7.706-34.847 20.613a6.998 6.998 0 0 1-9.651 2.202 7 7 0 0 1-2.203-9.651C27.659 11.155 45.117 1 63.673 1s36.014 10.155 46.702 27.164a7 7 0 0 1-2.203 9.651 6.96 6.96 0 0 1-3.718 1.075zM63.673 125.346c-31.476 0-57.084-28.676-57.084-63.923a7 7 0 1 1 14 0c0 27.527 19.328 49.923 43.084 49.923s43.084-22.396 43.084-49.923a7 7 0 1 1 14 0c0 35.247-25.608 63.923-57.084 63.923z" style="" fill="#ff8f8f" data-original="#ff8f8f" class=""></path><path d="M63.673 9C45.219 9 27.854 19.047 17.151 35.887a6.998 6.998 0 0 0 11.674-.273C36.936 22.706 49.962 15 63.673 15S90.41 22.706 98.52 35.613a6.996 6.996 0 0 0 9.651 2.202 6.976 6.976 0 0 0 2.023-1.929C99.492 19.047 82.126 9 63.673 9zM113.757 62.423a7 7 0 0 0-7 7c0 27.527-19.328 49.923-43.084 49.923S20.589 96.95 20.589 69.423a6.996 6.996 0 0 0-13.733-1.895c2.755 32.393 27.181 57.817 56.817 57.817s54.062-25.425 56.817-57.817a6.997 6.997 0 0 0-6.733-5.105z" style="" fill="#ff1a1a" data-original="#ff1a1a"></path><path d="M22.883 40.892a8.43 8.43 0 0 1-4.507-1.307 8.442 8.442 0 0 1-3.764-5.305 8.445 8.445 0 0 1 1.089-6.414C26.665 10.417 44.599 0 63.673 0s37.008 10.417 47.972 27.866a8.44 8.44 0 0 1 1.089 6.414 8.444 8.444 0 0 1-3.765 5.306 8.47 8.47 0 0 1-4.515 1.304 8.46 8.46 0 0 1-7.204-3.979C89.416 24.443 76.864 17 63.673 17S37.93 24.443 30.096 36.911a8.442 8.442 0 0 1-5.305 3.765 8.61 8.61 0 0 1-1.908.216zM63.673 3c-18.036 0-35.02 9.893-45.432 26.462a5.466 5.466 0 0 0-.705 4.15 5.463 5.463 0 0 0 2.436 3.433 5.459 5.459 0 0 0 4.151.706 5.462 5.462 0 0 0 3.433-2.436C35.942 21.969 49.443 14 63.673 14s27.731 7.969 36.117 21.315a5.48 5.48 0 0 0 4.664 2.574 5.472 5.472 0 0 0 2.918-.844 5.463 5.463 0 0 0 2.437-3.434 5.466 5.466 0 0 0-.705-4.15C98.693 12.893 81.709 3 63.673 3zM63.673 127.346c-32.303 0-58.584-29.349-58.584-65.423 0-4.687 3.813-8.5 8.5-8.5s8.5 3.813 8.5 8.5c0 26.7 18.654 48.423 41.584 48.423s41.584-21.723 41.584-48.423c0-4.687 3.813-8.5 8.5-8.5s8.5 3.813 8.5 8.5c0 36.074-26.281 65.423-58.584 65.423zM13.589 56.423a5.506 5.506 0 0 0-5.5 5.5c0 34.42 24.935 62.423 55.584 62.423s55.584-28.003 55.584-62.423c0-3.033-2.467-5.5-5.5-5.5s-5.5 2.467-5.5 5.5c0 28.354-20 51.423-44.584 51.423S19.089 90.277 19.089 61.923c0-3.033-2.467-5.5-5.5-5.5z" style="" fill="#33363a" data-original="#33363a" class=""></path><circle cx="63.673" cy="63.422" r="15.736" style="" fill="#ff8f8f" data-original="#ff8f8f" class=""></circle><path d="M79.409 63.422c0 6.658-7.046 12.054-15.736 12.054-8.689 0-15.735-5.395-15.735-12.054 0-6.65 7.046-12.054 15.735-12.054 8.69 0 15.736 5.403 15.736 12.054z" style="" fill="#ff1a1a" data-original="#ff1a1a"></path><path d="M47.937 63.422c0 8.691 7.046 15.737 15.735 15.737 8.69 0 15.736-7.046 15.736-15.737H47.937z" style="" fill="#ffffff" data-original="#ffffff"></path><path d="M63.672 75.476c8.69 0 15.736-5.395 15.736-12.054H47.937c0 6.658 7.046 12.054 15.735 12.054z" style="" fill="#dce6ea" data-original="#dce6ea"></path><path d="M63.672 46.188c-9.503 0-17.235 7.731-17.235 17.234 0 9.505 7.732 17.237 17.235 17.237 9.504 0 17.236-7.732 17.236-17.237.001-9.503-7.732-17.234-17.236-17.234zm0 3c7.343 0 13.403 5.588 14.156 12.734h-28.31c.752-7.146 6.812-12.734 14.154-12.734zm0 28.471c-7.343 0-13.403-5.589-14.155-12.737h28.31c-.751 7.148-6.811 12.737-14.155 12.737z" style="" fill="#33363a" data-original="#33363a" class=""></path><path d="M67.351 61.548a5.199 5.199 0 0 1 0 7.355 5.198 5.198 0 0 1-7.357 0 5.2 5.2 0 0 1 0-7.355 5.2 5.2 0 0 1 7.357 0z" style="" fill="#a7bbc1" data-original="#a7bbc1"></path><circle cx="63.672" cy="63.456" r="5.202" style="" fill="#ffffff" data-original="#ffffff"></circle><path d="M59.994 67.134a5.202 5.202 0 0 1 7.357-7.356" style="" fill="#d8e5ea" data-original="#d8e5ea"></path><path d="M63.673 70.159a6.656 6.656 0 0 1-4.74-1.965c-1.265-1.265-1.962-2.947-1.962-4.738s.697-3.475 1.963-4.739a6.66 6.66 0 0 1 4.74-1.963c1.791 0 3.474.697 4.739 1.963a6.659 6.659 0 0 1 1.963 4.74 6.651 6.651 0 0 1-1.964 4.738 6.656 6.656 0 0 1-4.739 1.964zm0-10.405c-.989 0-1.919.385-2.619 1.084s-1.084 1.629-1.084 2.618.385 1.919 1.083 2.616c1.401 1.402 3.84 1.4 5.236.002a3.673 3.673 0 0 0 1.085-2.618c0-.989-.385-1.919-1.084-2.617l-.001-.001a3.67 3.67 0 0 0-2.616-1.084z" style="" fill="#33363a" data-original="#33363a" class=""></path></g></svg>