<svg xmlns="http://www.w3.org/2000/svg" version="1.1" xmlns:xlink="http://www.w3.org/1999/xlink" xmlns:svgjs="http://svgjs.com/svgjs" width="512" height="512" x="0" y="0" viewBox="0 0 127.5 127.5" style="enable-background:new 0 0 512 512" xml:space="preserve" class=""><g><path d="M99.369 121.93a4.07 4.07 0 0 1-4.07 4.07H32.201a4.07 4.07 0 0 1-4.07-4.07V5.57a4.07 4.07 0 0 1 4.07-4.07h63.098a4.07 4.07 0 0 1 4.07 4.07v116.36z" style="" fill="#ffffff" data-original="#ffffff"></path><path d="M89.973 121.93c0 2.248-1.34 4.07-2.996 4.07H40.521c-1.652 0-2.994-1.822-2.994-4.07V5.57c0-2.248 1.342-4.07 2.994-4.07h46.455c1.656 0 2.996 1.822 2.996 4.07v116.36z" style="" fill="#bccad3" data-original="#bccad3" class=""></path><path d="M28.131 13.287h71.238v96.684H28.131z" style="" fill="#00aaff" data-original="#00aaff" class=""></path><path d="M36.283 13.287h55.094v96.684H36.283z" style="" fill="#0068ff" data-original="#0068ff" class=""></path><path d="M95.299 0H32.201a5.577 5.577 0 0 0-5.57 5.57V121.93a5.577 5.577 0 0 0 5.57 5.57h63.098a5.577 5.577 0 0 0 5.57-5.57V5.57A5.577 5.577 0 0 0 95.299 0zM32.201 3h63.098a2.573 2.573 0 0 1 2.57 2.57v5.879H29.631V5.57A2.573 2.573 0 0 1 32.201 3zm65.668 105.131H29.631V14.449h68.238v93.682zm-2.57 16.369H32.201a2.573 2.573 0 0 1-2.57-2.57v-10.799h68.238v10.799a2.573 2.573 0 0 1-2.57 2.57z" style="" fill="#33363a" data-original="#33363a" class=""></path><path d="M69.74 122.695H57.76a4.928 4.928 0 0 1-4.922-4.922 4.929 4.929 0 0 1 4.922-4.924h11.98a4.929 4.929 0 0 1 4.922 4.924 4.928 4.928 0 0 1-4.922 4.922zm-11.98-6.845a1.924 1.924 0 0 0 0 3.846h11.98a1.924 1.924 0 0 0 0-3.846H57.76zM88.514 9.629a2.612 2.612 0 0 1-2.609-2.608c0-1.439 1.171-2.61 2.609-2.61s2.609 1.171 2.609 2.61a2.612 2.612 0 0 1-2.609 2.608zm0-3a.392.392 0 1 0 .002.784.392.392 0 0 0-.002-.784zM70.789 8.773H56.711a1.5 1.5 0 1 1 0-3h14.078a1.5 1.5 0 1 1 0 3z" style="" fill="#33363a" data-original="#33363a" class=""></path><path d="M88.801 61.626c0 13.838-11.217 25.054-25.051 25.054-13.836 0-25.051-11.216-25.051-25.054 0-13.834 11.215-25.049 25.051-25.049 13.834 0 25.051 11.215 25.051 25.049z" style="" fill="#ff8f8f" data-original="#ff8f8f"></path><path d="M88.801 61.626c0 10.599-11.217 19.19-25.051 19.19-13.836 0-25.051-8.592-25.051-19.19 0-10.594 11.215-19.186 25.051-19.186 13.834 0 25.051 8.592 25.051 19.186z" style="" fill="#ff1a1a" data-original="#ff1a1a"></path><path d="M38.699 61.626c0 13.838 11.215 25.054 25.051 25.054 13.834 0 25.051-11.216 25.051-25.054H38.699z" style="" fill="#ffffff" data-original="#ffffff"></path><path d="M63.75 80.816c13.834 0 25.051-8.592 25.051-19.19H38.699c0 10.599 11.215 19.19 25.051 19.19z" style="" fill="#d8e5ea" data-original="#d8e5ea"></path><path d="M63.75 35.077c-14.641 0-26.551 11.91-26.551 26.549 0 14.642 11.91 26.554 26.551 26.554s26.551-11.912 26.551-26.554c0-14.639-11.91-26.549-26.551-26.549zm0 3c12.482 0 22.721 9.761 23.498 22.049H40.252c.777-12.288 11.016-22.049 23.498-22.049zm0 47.103c-12.482 0-22.721-9.763-23.498-22.054h46.996C86.471 75.417 76.232 85.18 63.75 85.18z" style="" fill="#33363a" data-original="#33363a" class=""></path><path d="M69.605 58.64a8.282 8.282 0 0 1 0 11.715 8.281 8.281 0 0 1-11.713 0 8.286 8.286 0 0 1 0-11.715 8.285 8.285 0 0 1 11.713 0z" style="" fill="#a7bbc1" data-original="#a7bbc1"></path><path d="M69.605 55.825A8.282 8.282 0 1 1 57.892 67.54a8.286 8.286 0 0 1 0-11.715 8.28 8.28 0 0 1 11.713 0z" style="" fill="#ffffff" data-original="#ffffff"></path><path d="M57.893 67.54a8.286 8.286 0 0 1 0-11.715 8.28 8.28 0 0 1 11.713 0" style="" fill="#d8e5ea" data-original="#d8e5ea"></path><path d="M63.75 71.458a9.76 9.76 0 0 1-6.917-2.856c-3.814-3.817-3.814-10.023-.001-13.837 1.849-1.849 4.306-2.867 6.918-2.867s5.068 1.018 6.916 2.866a9.714 9.714 0 0 1 2.866 6.917 9.72 9.72 0 0 1-2.866 6.918 9.75 9.75 0 0 1-6.916 2.859zm0-16.56a6.739 6.739 0 0 0-4.797 1.988c-2.644 2.644-2.644 6.948 0 9.594 2.646 2.642 6.951 2.641 9.592 0a6.738 6.738 0 0 0 1.987-4.797 6.734 6.734 0 0 0-1.987-4.796 6.731 6.731 0 0 0-4.795-1.989z" style="" fill="#33363a" data-original="#33363a" class=""></path></g></svg>