<svg xmlns="http://www.w3.org/2000/svg" version="1.1" xmlns:xlink="http://www.w3.org/1999/xlink" xmlns:svgjs="http://svgjs.com/svgjs" width="512" height="512" x="0" y="0" viewBox="0 0 127.543 127.543" style="enable-background:new 0 0 512 512" xml:space="preserve" class=""><g><path d="M11.573 15.268c-7.047 9.68-8.523 22.881-2.655 34.246 5.867 11.371 17.481 17.81 29.458 17.678 7.047-9.684 8.522-22.881 2.654-34.25-5.868-11.368-17.479-17.809-29.457-17.674z" style="" fill="#0d5c9e" data-original="#0d5c9e" class=""></path><path d="M38.376 67.191c7.047-9.684 8.522-22.881 2.654-34.25-5.868-11.367-17.479-17.809-29.457-17.674" style="" fill="#009be8" data-original="#009be8" class=""></path><path d="M38.001 68.693c-12.888 0-24.517-7.058-30.416-18.492-5.963-11.549-4.9-25.273 2.775-35.816a1.502 1.502 0 0 1 1.196-.617l.397-.002c12.883 0 24.508 7.056 30.41 18.487 5.962 11.551 4.899 25.276-2.774 35.821a1.5 1.5 0 0 1-1.196.617l-.392.002zM12.348 16.768c-6.604 9.534-7.421 21.747-2.097 32.058 5.32 10.312 15.751 16.721 27.351 16.866 6.602-9.536 7.418-21.75 2.096-32.062-5.323-10.311-15.754-16.719-27.35-16.862z" style="" fill="#33363a" data-original="#33363a" class=""></path><path d="M115.97 15.268c7.047 9.68 8.523 22.881 2.655 34.246-5.867 11.371-17.48 17.81-29.458 17.678-7.047-9.684-8.522-22.881-2.654-34.25 5.868-11.368 17.479-17.809 29.457-17.674z" style="" fill="#0d5c9e" data-original="#0d5c9e" class=""></path><path d="M89.167 67.191c-7.047-9.684-8.522-22.881-2.654-34.25 5.868-11.367 17.479-17.809 29.457-17.674" style="" fill="#009be8" data-original="#009be8" class=""></path><path d="m89.542 68.693-.392-.002a1.5 1.5 0 0 1-1.196-.617c-7.673-10.545-8.736-24.271-2.774-35.82 5.901-11.432 17.528-18.488 30.41-18.488l.397.002c.474.006.917.234 1.196.617 7.675 10.543 8.739 24.268 2.775 35.817-5.899 11.433-17.529 18.491-30.416 18.491zm25.653-51.925c-11.597.143-22.027 6.551-27.35 16.862s-4.506 22.525 2.096 32.062c11.6-.145 22.03-6.555 27.351-16.865 5.324-10.312 4.507-22.525-2.097-32.059z" style="" fill="#33363a" data-original="#33363a" class=""></path><path d="M126.043 68.844c0 26.166-27.88 47.381-62.271 47.381S1.5 95.01 1.5 68.844c0-26.168 27.88-57.525 62.271-57.525s62.272 31.357 62.272 57.525z" style="" fill="#009be8" data-original="#009be8" class=""></path><path d="M126.043 68.844c0 26.166-27.88 47.381-62.271 47.381S1.5 95.01 1.5 68.844c0-26.168 27.88-44.199 62.271-44.199s62.272 18.031 62.272 44.199z" style="" fill="#0d5c9e" data-original="#0d5c9e" class=""></path><path d="M126.043 68.844c0 26.166-27.88 47.381-62.271 47.381S1.5 95.01 1.5 68.844c0-26.17 7.923 23.209 62.271 23.209s62.272-49.379 62.272-23.209z" style="" fill="#063b66" data-original="#063b66" class=""></path><path d="M81.88 38.541 63.771 56.65 45.663 38.541c-22.968 3.551-39.547 14.4-39.547 33.814 0 24.227 25.812 43.869 57.655 43.869s57.655-19.643 57.655-43.869c.001-19.412-16.578-30.263-39.546-33.814z" style="" fill="#f4d7b8" data-original="#f4d7b8" class=""></path><path d="M104.186 45.525c-6.225-3.365-13.828-5.674-22.307-6.984L63.771 56.65 45.663 38.541c-8.479 1.311-16.082 3.619-22.307 6.984 10.404 7.783 24.669 12.592 40.415 12.592 15.746 0 30.011-4.808 40.415-12.592z" style="" fill="#fce6c8" data-original="#fce6c8" class=""></path><path d="M121.427 72.355a30.26 30.26 0 0 0-.916-7.488c-7.173 8.18-23.018 27.186-56.739 27.186S14.205 73.047 7.032 64.867a30.214 30.214 0 0 0-.916 7.488c0 23.469 24.225 42.637 54.687 43.811a83.43 83.43 0 0 0 2.968.059c.995 0 1.983-.023 2.968-.059 30.463-1.174 54.688-20.342 54.688-43.811z" style="" fill="#eac79d" data-original="#eac79d" class=""></path><path d="M63.771 117.725c-32.618 0-59.155-20.353-59.155-45.369 0-18.692 14.496-31.228 40.818-35.297a1.51 1.51 0 0 1 1.29.422L63.772 54.53l17.047-17.05a1.496 1.496 0 0 1 1.29-.422c26.322 4.069 40.818 16.604 40.818 35.297 0 25.017-26.537 45.37-59.156 45.37zM45.143 40.143C30.776 42.484 7.616 49.77 7.616 72.355c0 23.362 25.191 42.369 56.155 42.369s56.155-19.007 56.155-42.369c0-22.586-23.16-29.871-37.527-32.213L64.832 57.711c-.563.563-1.559.563-2.121 0L45.143 40.143z" style="" fill="#33363a" data-original="#33363a" class=""></path><path d="M63.771 117.725C28.608 117.725 0 95.797 0 68.844 0 42.108 28.446 9.818 63.771 9.818s63.771 32.29 63.771 59.025c.001 26.954-28.607 48.882-63.771 48.882zm0-104.907C30.108 12.818 3 43.468 3 68.844c0 25.299 27.262 45.881 60.771 45.881s60.771-20.582 60.771-45.881c.001-25.376-27.107-56.026-60.771-56.026z" style="" fill="#33363a" data-original="#33363a" class=""></path><path d="M76.187 82.021c0 2.613-5.559 1.146-12.416 1.146s-12.416 1.467-12.416-1.146 5.559-4.734 12.416-4.734 12.416 2.121 12.416 4.734z" style="" fill="#fce6c8" data-original="#fce6c8" class=""></path><path d="M53.608 73.309a1.502 1.502 0 0 1-1.413-.996c-1.032-2.896-3.071-4.771-6.059-5.57-2.781-.745-6.21-.476-9.658.755a1.5 1.5 0 1 1-1.009-2.826c4.016-1.433 8.079-1.728 11.442-.827 3.942 1.055 6.746 3.635 8.11 7.461a1.5 1.5 0 0 1-1.413 2.003zM73.934 73.309a1.5 1.5 0 0 1-1.413-2.004c1.364-3.826 4.169-6.406 8.111-7.461 3.362-.9 7.426-.605 11.442.827a1.5 1.5 0 0 1-1.009 2.826c-3.448-1.231-6.878-1.501-9.658-.755-2.989.8-5.028 2.674-6.06 5.57-.22.614-.797.997-1.413.997zM84.627 81.144a1.499 1.499 0 0 0-.397-.134l-3.514-.602a1.503 1.503 0 0 0-1.732 1.227l-.581 3.406c-3.229.945-8.142 1.754-14.633 1.754s-11.404-.81-14.633-1.754l-.581-3.406a1.503 1.503 0 0 0-1.732-1.227l-3.514.602a1.464 1.464 0 0 0-.397.134 1.497 1.497 0 0 0-1.276 1.477c0 4.929 11.473 7.174 22.132 7.174s22.132-2.245 22.132-7.174a1.492 1.492 0 0 0-1.274-1.477zm-38.746 2.64c-.083-.046-.144-.089-.22-.133l.191-.033.029.166zm35.809-.166.191.033c-.075.045-.136.088-.22.133l.029-.166z" style="" fill="#33363a" data-original="#33363a" class=""></path></g></svg>