<svg xmlns="http://www.w3.org/2000/svg" version="1.1" xmlns:xlink="http://www.w3.org/1999/xlink" xmlns:svgjs="http://svgjs.com/svgjs" width="512" height="512" x="0" y="0" viewBox="0 0 127.789 127.789" style="enable-background:new 0 0 512 512" xml:space="preserve" class=""><g><path d="m97.188 23.982.008.004C94.325 11.121 82.848 1.5 69.118 1.5c-15.893 0-28.777 12.885-28.777 28.777 0 11.66 6.939 21.693 16.91 26.215a28.862 28.862 0 0 1-.699-6.293 28.625 28.625 0 0 1 6.006-17.582c1.484 8.385 8.791 14.758 17.604 14.758 9.883 0 17.896-8.012 17.896-17.895 0-1.919-.311-3.765-.87-5.498z" style="" fill="#93f9ea" data-original="#93f9ea" class=""></path><path d="M56.552 50.199a28.625 28.625 0 0 1 6.006-17.582c1.484 8.385 8.791 14.758 17.604 14.758 8.581 0 15.745-6.043 17.484-14.107a18.347 18.347 0 0 0-.458-1.754l.008.004C94.325 18.654 82.848 9.033 69.118 9.033c-14.607 0-26.664 10.887-28.522 24.986 1.275 9.789 7.467 18.02 16.021 22.156.039-.73.106-1.453.199-2.17a28.752 28.752 0 0 1-.264-3.806z" style="" fill="#70d3e0" data-original="#70d3e0" class=""></path><path d="m98.661 23.664-.001-.005C95.601 9.95 83.177 0 69.118 0 52.423 0 38.841 13.582 38.841 30.277c0 11.854 6.983 22.68 17.791 27.581a1.494 1.494 0 0 0 1.565-.202 1.5 1.5 0 0 0 .518-1.491 27.437 27.437 0 0 1-.663-5.966c0-5.025 1.341-9.828 3.902-14.058a19.35 19.35 0 0 0 18.208 12.733c10.694 0 19.396-8.7 19.396-19.395 0-1.965-.302-3.921-.897-5.815zM80.162 45.875a16.356 16.356 0 0 1-15.358-10.678 1.492 1.492 0 0 0-.076-.753c-2.496-6.524.781-13.863 7.306-16.359a9.769 9.769 0 0 1 7.524.205 9.774 9.774 0 0 1 5.176 5.47 7.506 7.506 0 0 1-.157 5.786 7.507 7.507 0 0 1-4.207 3.982c-2.963 1.138-6.297-.353-7.432-3.315a4.31 4.31 0 0 1 2.48-5.562 1.501 1.501 0 0 0-1.073-2.803c-3.761 1.438-5.649 5.671-4.21 9.436 1.333 3.482 4.662 5.625 8.187 5.625a8.724 8.724 0 0 0 3.119-.578c2.637-1.009 4.723-2.983 5.874-5.562s1.229-5.448.22-8.082a12.754 12.754 0 0 0-6.754-7.136 12.756 12.756 0 0 0-9.82-.27c-6.956 2.662-10.914 9.774-9.901 16.855-3.922 5.255-6.008 11.483-6.008 18.062 0 1.188.071 2.382.214 3.572-8.24-4.868-13.425-13.8-13.425-23.494C41.841 15.236 54.077 3 69.118 3 81.734 3 92.891 11.896 95.7 24.172c.012.091.032.182.061.271a16.39 16.39 0 0 1 .797 5.038c0 9.04-7.356 16.394-16.396 16.394z" style="" fill="#33363a" data-original="#33363a"></path><path d="M113.104 88.848c0 20.676-22.032 37.441-49.209 37.441-27.178 0-49.209-16.766-49.209-37.441 0-20.68 22.031-45.459 49.209-45.459 27.176 0 49.209 24.779 49.209 45.459z" style="" fill="#93f9ea" data-original="#93f9ea" class=""></path><path d="M113.104 88.848c0 20.676-22.032 37.441-49.209 37.441-27.178 0-49.209-16.766-49.209-37.441 0-20.68 22.031-34.928 49.209-34.928 27.176 0 49.209 14.248 49.209 34.928z" style="" fill="#7fe5d8" data-original="#7fe5d8" class=""></path><path d="M74.415 102.902c0 1.393-4.691 1.643-10.479 1.643s-10.479-.25-10.479-1.643c0-1.395 4.691-5.037 10.479-5.037s10.479 3.643 10.479 5.037z" style="" fill="#93f9ea" data-original="#93f9ea" class=""></path><path d="M113.104 88.848c0 20.676-22.032 37.441-49.209 37.441-27.178 0-49.209-16.766-49.209-37.441 0-20.682 6.261 18.34 49.209 18.34s49.209-39.022 49.209-18.34z" style="" fill="#70d3e0" data-original="#70d3e0" class=""></path><path d="M63.895 127.789c-27.961 0-50.709-17.469-50.709-38.941 0-21.27 22.619-46.959 50.709-46.959s50.709 25.689 50.709 46.959c0 21.472-22.749 38.941-50.709 38.941zm0-82.9c-26.428 0-47.709 24.048-47.709 43.959 0 19.818 21.402 35.941 47.709 35.941s47.709-16.123 47.709-35.941c0-19.911-21.282-43.959-47.709-43.959z" style="" fill="#33363a" data-original="#33363a"></path><path d="M47.732 94.754a8.05 8.05 0 0 1-8.052 8.051 8.049 8.049 0 0 1-8.051-8.051 8.05 8.05 0 0 1 8.051-8.051 8.051 8.051 0 0 1 8.052 8.051z" style="" fill="#893015" data-original="#893015"></path><circle cx="35.676" cy="92.137" r="3.281" style="" fill="#ffffff" data-original="#ffffff" class=""></circle><path d="M39.681 85.203c-3.234 0-6.093 1.62-7.822 4.086a4.72 4.72 0 0 0-.318.494 9.476 9.476 0 0 0-1.411 4.97c0 5.267 4.284 9.551 9.551 9.551s9.552-4.284 9.552-9.551-4.286-9.55-9.552-9.55zm0 16.102a6.558 6.558 0 0 1-6.046-4.034c.688-.018 1.524-.2 2.468-.396.336-.03.659-.093.972-.19.819-.148 1.693-.267 2.607-.267 2.412 0 4.571.813 6.047.853a6.564 6.564 0 0 1-6.048 4.034z" style="" fill="#33363a" data-original="#33363a"></path><circle cx="35.676" cy="92.138" r="1.78" style="" fill="#ffffff" data-original="#ffffff" class=""></circle><path d="M96.159 94.754a8.049 8.049 0 0 1-8.051 8.051 8.05 8.05 0 0 1-8.052-8.051 8.05 8.05 0 0 1 8.052-8.051 8.05 8.05 0 0 1 8.051 8.051z" style="" fill="#893015" data-original="#893015"></path><circle cx="84.104" cy="92.137" r="3.28" style="" fill="#ffffff" data-original="#ffffff" class=""></circle><path d="M88.108 85.203c-3.238 0-6.101 1.623-7.829 4.095-.113.151-.211.31-.305.474a9.477 9.477 0 0 0-1.417 4.981c0 5.267 4.285 9.551 9.552 9.551s9.551-4.284 9.551-9.551-4.285-9.55-9.552-9.55zm0 16.102a6.56 6.56 0 0 1-6.047-4.034c.688-.018 1.524-.2 2.467-.396.337-.03.661-.093.974-.19.818-.148 1.693-.267 2.606-.267 2.412 0 4.571.813 6.046.853a6.558 6.558 0 0 1-6.046 4.034z" style="" fill="#33363a" data-original="#33363a"></path><circle cx="84.104" cy="92.138" r="1.78" style="" fill="#ffffff" data-original="#ffffff" class=""></circle><path d="M94.787 105.697a1.503 1.503 0 0 0-2.007.688c-.034.07-3.554 6.973-15.432 6.78a51.655 51.655 0 0 0-.871-.007c-7.436 0-10.932 1.583-12.579 3.104-1.707-1.587-5.412-3.242-13.456-3.097-.162.003-.321.004-.479.004-11.367 0-14.806-6.492-14.958-6.792a1.5 1.5 0 0 0-2.691 1.326c.172.35 4.297 8.466 17.648 8.466.174 0 .351-.001.528-.004 9.072-.159 11.657 2.161 11.883 3.063-.017-.065-.015-.103-.015-.103l1.536-.14 1.536.14s.002.037-.015.103c.226-.901 2.763-3.214 11.885-3.063 13.733.228 18.002-8.107 18.175-8.462a1.5 1.5 0 0 0-.688-2.006z" style="" fill="#33363a" data-original="#33363a"></path><path d="M61.427 111.045c-.398 0-.795-.157-1.091-.47l-1.5-1.588a1.502 1.502 0 0 1 .061-2.121 1.502 1.502 0 0 1 2.121.061l1.5 1.588a1.502 1.502 0 0 1-1.091 2.53zM66.362 111.045a1.502 1.502 0 0 1-1.091-2.53l1.5-1.588a1.502 1.502 0 0 1 2.121-.061c.602.569.629 1.519.061 2.121l-1.5 1.588c-.296.313-.693.47-1.091.47zM49.029 82.959c-.266 0-.533-.07-.776-.218l-4.674-2.834a1.499 1.499 0 0 1-.505-2.06 1.498 1.498 0 0 1 2.06-.505l4.674 2.834a1.499 1.499 0 0 1-.779 2.783zM78.76 82.959a1.499 1.499 0 0 1-.778-2.783l4.674-2.834a1.498 1.498 0 0 1 2.06.505c.43.708.204 1.631-.505 2.06l-4.674 2.834a1.492 1.492 0 0 1-.777.218z" style="" fill="#33363a" data-original="#33363a"></path></g></svg>