<svg xmlns="http://www.w3.org/2000/svg" version="1.1" xmlns:xlink="http://www.w3.org/1999/xlink" xmlns:svgjs="http://svgjs.com/svgjs" width="512" height="512" x="0" y="0" viewBox="0 0 126.334 126.334" style="enable-background:new 0 0 512 512" xml:space="preserve" class=""><g><circle cx="63.167" cy="63.166" r="61.666" style="" fill="#7bc7ff" data-original="#7bc7ff"></circle><ellipse cx="63.167" cy="63.166" rx="61.666" ry="47.232" style="" fill="#0086ff" data-original="#0086ff"></ellipse><path d="M5.681 40.853h35.787v-13.5H12.981a61.52 61.52 0 0 0-7.3 13.5z" style="" fill="#ff6666" data-original="#ff6666"></path><path d="M8.81 40.853h32.658v-13.5H22.985c-5.738 3.782-10.566 8.352-14.175 13.5z" style="" fill="#ff1a1a" data-original="#ff1a1a"></path><path d="M113.352 27.353H84.866v13.5h35.787a61.481 61.481 0 0 0-7.301-13.5z" style="" fill="#ff6666" data-original="#ff6666"></path><path d="M103.349 27.353H84.866v13.5h32.658c-3.609-5.148-8.437-9.718-14.175-13.5z" style="" fill="#ff1a1a" data-original="#ff1a1a"></path><path d="M1.501 63.166c0 34.061 27.609 61.668 61.666 61.668s61.666-27.607 61.666-61.668H1.501z" style="" fill="#ffffff" data-original="#ffffff"></path><path d="M63.167 110.398c34.057 0 61.666-21.148 61.666-47.232H1.501c0 26.084 27.609 47.232 61.666 47.232z" style="" fill="#d8e5ea" data-original="#d8e5ea"></path><path d="M122.08 40.422c-.011-.037-.014-.075-.028-.111-.177-.457-.366-.91-.554-1.363-.06-.143-.115-.289-.175-.431a61.264 61.264 0 0 0-1.11-2.451l-.241-.5a62.94 62.94 0 0 0-2.759-5.064l-.066-.109a63.343 63.343 0 0 0-2.574-3.911c-.044-.061-.099-.111-.15-.165C102.943 10.394 84.251 0 63.167 0S23.391 10.394 11.912 26.316c-.052.053-.107.103-.15.165a63.043 63.043 0 0 0-2.574 3.911l-.066.109a63.111 63.111 0 0 0-2.759 5.064l-.241.5c-.386.811-.76 1.627-1.111 2.453-.06.141-.114.284-.173.425-.189.454-.378.909-.556 1.368-.014.036-.017.074-.028.111A62.816 62.816 0 0 0 .001 63.166c0 34.831 28.336 63.168 63.166 63.168s63.166-28.337 63.166-63.168a62.816 62.816 0 0 0-4.253-22.744zm-3.691-1.068H86.366v-10.5h26.183a60.118 60.118 0 0 1 5.84 10.5zm-104.604-10.5h26.183v10.5H7.945a60.118 60.118 0 0 1 5.84-10.5zm-7.038 13.5h34.721a1.5 1.5 0 0 0 1.5-1.5v-13.5a1.5 1.5 0 0 0-1.5-1.5H16.032C27.057 11.945 44.079 3 63.167 3s36.11 8.945 47.135 22.854H84.866a1.5 1.5 0 0 0-1.5 1.5v13.5a1.5 1.5 0 0 0 1.5 1.5h34.721a59.828 59.828 0 0 1 3.708 19.313H3.039a59.818 59.818 0 0 1 3.708-19.313zm56.42 80.98c-32.673 0-59.327-26.184-60.128-58.668h120.256c-.801 32.484-27.455 58.668-60.128 58.668z" style="" fill="#33363a" data-original="#33363a"></path><circle cx="63.167" cy="68.868" r="16.764" style="" fill="#a7bbc1" data-original="#a7bbc1"></circle><circle cx="63.167" cy="63.167" r="16.764" style="" fill="#ffffff" data-original="#ffffff"></circle><path d="M51.313 75.021c-6.547-6.547-6.547-17.16 0-23.709 6.547-6.546 17.162-6.546 23.707 0" style="" fill="#d8e5ea" data-original="#d8e5ea"></path><path d="M63.167 81.432c-4.878 0-9.465-1.9-12.915-5.35-7.121-7.12-7.121-18.708 0-25.83a18.149 18.149 0 0 1 12.915-5.349 18.14 18.14 0 0 1 12.914 5.349c7.12 7.123 7.12 18.71 0 25.83a18.138 18.138 0 0 1-12.914 5.35zm0-33.529c-4.077 0-7.91 1.587-10.793 4.47-5.951 5.953-5.951 15.637 0 21.588a15.164 15.164 0 0 0 10.793 4.471c4.078 0 7.91-1.588 10.792-4.471 5.951-5.951 5.951-15.635 0-21.588a15.16 15.16 0 0 0-10.792-4.47z" style="" fill="#33363a" data-original="#33363a"></path><path d="M68.87 68.87a8.07 8.07 0 0 1-11.404 0A8.065 8.065 0 0 1 68.87 57.467a8.063 8.063 0 0 1 0 11.403z" style="" fill="#ffffff" data-original="#ffffff"></path><path d="M57.466 57.467A8.064 8.064 0 0 1 68.87 68.87" style="" fill="#d8e5ea" data-original="#d8e5ea"></path><path d="M63.168 72.725a9.535 9.535 0 0 1-6.762-2.794c-3.729-3.73-3.728-9.797 0-13.525a9.495 9.495 0 0 1 6.762-2.802h.001c2.555 0 4.957.996 6.763 2.802 3.728 3.728 3.728 9.794 0 13.524h-.001a9.536 9.536 0 0 1-6.763 2.795zm-.001-16.121a6.516 6.516 0 0 0-4.64 1.923 6.57 6.57 0 0 0 0 9.282 6.575 6.575 0 0 0 9.283 0c2.558-2.561 2.558-6.724 0-9.282a6.532 6.532 0 0 0-4.643-1.923z" style="" fill="#33363a" data-original="#33363a"></path></g></svg>