<svg xmlns="http://www.w3.org/2000/svg" version="1.1" xmlns:xlink="http://www.w3.org/1999/xlink" xmlns:svgjs="http://svgjs.com/svgjs" width="512" height="512" x="0" y="0" viewBox="0 0 126.334 126.334" style="enable-background:new 0 0 512 512" xml:space="preserve" class=""><g><circle cx="63.167" cy="63.166" r="61.667" style="" fill="#4e5154" data-original="#4e5154"></circle><ellipse cx="63.167" cy="63.166" rx="61.667" ry="47.232" style="" fill="#33363a" data-original="#33363a" class=""></ellipse><path d="M100.578 14.155C90.201 6.223 77.238 1.5 63.168 1.5c-14.072 0-27.035 4.723-37.412 12.656V64.62h74.822V14.155z" style="" fill="#ffdb80" data-original="#ffdb80" class=""></path><path d="M100.578 25.627c-10.377-6.076-23.34-9.693-37.41-9.693-14.072 0-27.035 3.617-37.412 9.693V64.62h74.822V25.627z" style="" fill="#ffbe08" data-original="#ffbe08"></path><path d="M64.652 25.096h-2.971c-13.252 0-23.996 10.746-23.996 23.999V64.62h50.963V49.095c0-13.253-10.744-23.999-23.996-23.999z" style="" fill="#33363a" data-original="#33363a" class=""></path><path d="M1.5 63.166c0 34.061 27.609 61.668 61.668 61.668 34.057 0 61.666-27.607 61.666-61.668H1.5z" style="" fill="#ffffff" data-original="#ffffff"></path><path d="M63.168 110.398c34.057 0 61.666-21.148 61.666-47.232H1.5c0 26.084 27.609 47.232 61.668 47.232z" style="" fill="#d8e5ea" data-original="#d8e5ea" class=""></path><path d="M63.168 0C28.337 0 0 28.336 0 63.166c0 34.831 28.337 63.168 63.168 63.168 34.83 0 63.166-28.337 63.166-63.168C126.334 28.336 97.998 0 63.168 0zm0 3c32.673 0 59.327 26.183 60.128 58.666H3.038C3.839 29.183 30.494 3 63.168 3zm0 120.334c-32.674 0-59.329-26.184-60.13-58.668h120.258c-.801 32.484-27.455 58.668-60.128 58.668z" style="" fill="#33363a" data-original="#33363a" class=""></path><path d="M75.019 57.014c6.549 6.549 6.549 17.161 0 23.709-6.545 6.549-17.16 6.549-23.705 0-6.547-6.548-6.547-17.16 0-23.709 6.545-6.547 17.161-6.547 23.705 0z" style="" fill="#a7bbc1" data-original="#a7bbc1"></path><path d="M75.019 51.312c6.549 6.549 6.549 17.162 0 23.709-6.545 6.547-17.16 6.547-23.705 0-6.547-6.547-6.547-17.16 0-23.709 6.545-6.545 17.161-6.545 23.705 0z" style="" fill="#ffffff" data-original="#ffffff"></path><path d="M51.314 75.021c-6.547-6.547-6.547-17.16 0-23.709 6.545-6.546 17.16-6.546 23.705 0" style="" fill="#d8e5ea" data-original="#d8e5ea" class=""></path><path d="M63.167 81.432c-4.878 0-9.465-1.9-12.914-5.35-7.12-7.12-7.12-18.708 0-25.83 3.449-3.449 8.035-5.349 12.914-5.349s9.464 1.899 12.913 5.349a18.147 18.147 0 0 1 5.351 12.916c0 4.878-1.9 9.465-5.351 12.915a18.141 18.141 0 0 1-12.913 5.349zm0-33.529c-4.077 0-7.91 1.587-10.792 4.47-5.951 5.953-5.951 15.637 0 21.588 2.882 2.883 6.715 4.471 10.792 4.471s7.91-1.588 10.792-4.471a15.162 15.162 0 0 0 4.473-10.793c0-4.077-1.588-7.91-4.472-10.794a15.164 15.164 0 0 0-10.793-4.471z" style="" fill="#33363a" data-original="#33363a" class=""></path><path d="M68.871 68.87a8.07 8.07 0 0 1-11.404 0 8.065 8.065 0 0 1 11.404-11.403 8.065 8.065 0 0 1 0 11.403z" style="" fill="#ffffff" data-original="#ffffff"></path><path d="M57.467 57.467A8.065 8.065 0 0 1 68.871 68.87" style="" fill="#d8e5ea" data-original="#d8e5ea" class=""></path><path d="M63.168 72.725a9.538 9.538 0 0 1-6.762-2.793c-3.729-3.73-3.728-9.797 0-13.525a9.494 9.494 0 0 1 6.761-2.802h.001c2.554 0 4.956.995 6.763 2.801 3.728 3.728 3.728 9.795 0 13.525l-.001.001a9.543 9.543 0 0 1-6.762 2.793zm-.001-16.121c-1.753 0-3.4.683-4.639 1.923a6.57 6.57 0 0 0 0 9.282c2.559 2.557 6.723 2.556 9.283 0 2.557-2.56 2.557-6.724 0-9.282a6.536 6.536 0 0 0-4.644-1.923c.001 0 0 0 0 0z" style="" fill="#33363a" data-original="#33363a" class=""></path></g></svg>