<svg xmlns="http://www.w3.org/2000/svg" version="1.1" xmlns:xlink="http://www.w3.org/1999/xlink" xmlns:svgjs="http://svgjs.com/svgjs" width="512" height="512" x="0" y="0" viewBox="0 0 127.908 127.908" style="enable-background:new 0 0 512 512" xml:space="preserve" class=""><g><path d="M63.955 126.408a7.002 7.002 0 0 1-6.514-4.434L31.084 55.097a7 7 0 0 1 13.025-5.133l19.846 50.354 19.844-50.354a7.003 7.003 0 0 1 9.08-3.946 6.998 6.998 0 0 1 3.945 9.079l-26.357 66.878a7 7 0 0 1-6.512 4.433zM99.291 34.246a7 7 0 0 1-6.511-9.568l1.934-4.905-28.584 9.342a6.985 6.985 0 0 1-4.35 0l-28.584-9.342 1.934 4.905a7 7 0 0 1-13.025 5.133l-7.389-18.748a7 7 0 0 1 8.687-9.221l40.553 13.254 40.551-13.254a6.997 6.997 0 0 1 7.27 1.854 6.997 6.997 0 0 1 1.418 7.366l-7.389 18.748a7.007 7.007 0 0 1-6.515 4.436z" style="" fill="#fff24d" data-original="#fff24d"></path><path d="M63.955 126.408a7 7 0 0 0 6.512-4.434L96.342 56.32a6.956 6.956 0 0 0-3.463-2.97 7.004 7.004 0 0 0-9.08 3.946L63.955 107.65 44.109 57.297a7 7 0 0 0-9.08-3.946 6.964 6.964 0 0 0-3.463 2.97l25.875 65.654a7.002 7.002 0 0 0 6.514 4.433zM96.724 33.757a6.99 6.99 0 0 0 2.566.489 7.004 7.004 0 0 0 6.514-4.435l6.902-17.512a6.953 6.953 0 0 0-.932-1.27 6.996 6.996 0 0 0-7.27-1.853L63.955 22.43 23.402 9.176a7.001 7.001 0 0 0-7.27 1.853c-.367.389-.666.82-.93 1.27l6.9 17.512a7 7 0 0 0 9.08 3.946 6.964 6.964 0 0 0 3.463-2.97l-1.451-3.682 2.387.779a6.962 6.962 0 0 0-.453-3.207l-1.934-4.905 28.584 9.342a6.985 6.985 0 0 0 4.35 0l28.584-9.342-1.934 4.905a6.934 6.934 0 0 0-.451 3.207l2.385-.779-1.451 3.682a6.977 6.977 0 0 0 3.463 2.97z" style="" fill="#ffd00b" data-original="#ffd00b" class=""></path><path d="M63.955 127.908a8.454 8.454 0 0 1-7.909-5.384L29.688 55.647c-1.719-4.359.431-9.305 4.791-11.024 4.359-1.717 9.308.434 11.025 4.792l18.45 46.813 18.448-46.813c1.721-4.359 6.663-6.51 11.025-4.792a8.448 8.448 0 0 1 4.68 4.521 8.445 8.445 0 0 1 .111 6.504l-26.357 66.877a8.45 8.45 0 0 1-7.906 5.383zM37.588 47.031c-.67 0-1.35.123-2.01.382a5.506 5.506 0 0 0-3.099 7.133l26.357 66.878a5.471 5.471 0 0 0 5.118 3.483 5.47 5.47 0 0 0 5.116-3.483l26.357-66.878a5.46 5.46 0 0 0-.072-4.209 5.463 5.463 0 0 0-3.027-2.925 5.512 5.512 0 0 0-7.135 3.102L65.35 100.867a1.5 1.5 0 0 1-2.792 0L42.714 50.514a5.512 5.512 0 0 0-5.126-3.483zM99.291 35.746c-1.066 0-2.115-.2-3.115-.593-4.361-1.72-6.511-6.666-4.792-11.025l.765-1.938-25.555 8.35a8.442 8.442 0 0 1-5.282 0l-25.553-8.351.765 1.938c1.719 4.36-.431 9.305-4.791 11.025-4.359 1.718-9.306-.431-11.025-4.792l-7.389-18.749a8.536 8.536 0 0 1 1.722-8.945 8.536 8.536 0 0 1 8.828-2.25l40.086 13.102L104.04.417a8.529 8.529 0 0 1 8.827 2.251 8.529 8.529 0 0 1 1.722 8.944L107.2 30.36a8.456 8.456 0 0 1-7.909 5.386zm-4.578-17.473a1.502 1.502 0 0 1 1.396 2.05l-1.934 4.905a5.505 5.505 0 0 0 5.117 7.518 5.472 5.472 0 0 0 5.118-3.486l7.389-18.748a5.52 5.52 0 0 0-1.113-5.787 5.52 5.52 0 0 0-5.713-1.457L64.421 16.523a1.5 1.5 0 0 1-.932 0L22.936 3.269a5.52 5.52 0 0 0-5.712 1.457 5.521 5.521 0 0 0-1.114 5.788l7.389 18.748a5.508 5.508 0 0 0 7.135 3.101 5.506 5.506 0 0 0 3.1-7.133L31.8 20.323a1.5 1.5 0 0 1 1.862-1.976l28.584 9.342a5.454 5.454 0 0 0 3.417 0l28.585-9.342c.151-.05.308-.074.465-.074z" style="" fill="#33363a" data-original="#33363a" class=""></path><circle cx="63.954" cy="48.518" r="15.735" style="" fill="#ffaf10" data-original="#ffaf10"></circle><path d="M79.689 48.518c0 6.658-7.045 12.054-15.736 12.054-8.689 0-15.734-5.396-15.734-12.054 0-6.651 7.045-12.054 15.734-12.054 8.691 0 15.736 5.402 15.736 12.054z" style="" fill="#ffd00b" data-original="#ffd00b" class=""></path><path d="M48.218 48.518c0 8.691 7.045 15.737 15.734 15.737 8.691 0 15.736-7.046 15.736-15.737h-31.47z" style="" fill="#ffffff" data-original="#ffffff"></path><path d="M63.953 60.571c8.691 0 15.736-5.396 15.736-12.054H48.218c0 6.659 7.045 12.054 15.735 12.054z" style="" fill="#dce6ea" data-original="#dce6ea"></path><path d="M63.953 31.282c-9.503 0-17.234 7.732-17.234 17.235 0 9.505 7.731 17.237 17.234 17.237 9.504 0 17.236-7.732 17.236-17.237 0-9.503-7.732-17.235-17.236-17.235zm0 3c7.343 0 13.403 5.589 14.156 12.735h-28.31c.752-7.146 6.812-12.735 14.154-12.735zm0 28.473c-7.342 0-13.402-5.589-14.154-12.737h28.309c-.752 7.147-6.812 12.737-14.155 12.737z" style="" fill="#33363a" data-original="#33363a" class=""></path><circle cx="63.954" cy="50.321" r="5.202" style="" fill="#a7bbc1" data-original="#a7bbc1"></circle><path d="M67.633 44.873a5.198 5.198 0 0 1 0 7.356 5.202 5.202 0 1 1 0-7.356z" style="" fill="#ffffff" data-original="#ffffff"></path><path d="M60.275 52.229a5.202 5.202 0 0 1 7.357-7.356" style="" fill="#d8e5ea" data-original="#d8e5ea"></path><path d="M63.954 55.255a6.655 6.655 0 0 1-4.74-1.965c-1.265-1.264-1.962-2.947-1.962-4.738s.697-3.474 1.963-4.74a6.71 6.71 0 0 1 9.478 0 6.654 6.654 0 0 1 1.966 4.741 6.652 6.652 0 0 1-1.966 4.739 6.659 6.659 0 0 1-4.739 1.963zm0-10.404a3.69 3.69 0 0 0-2.618 1.083 3.677 3.677 0 0 0-1.084 2.618c0 .989.385 1.918 1.084 2.617 1.4 1.402 3.837 1.401 5.235.001a3.677 3.677 0 0 0 1.087-2.617 3.68 3.68 0 0 0-1.085-2.618l-.001-.001a3.69 3.69 0 0 0-2.618-1.083z" style="" fill="#33363a" data-original="#33363a" class=""></path></g></svg>